<?xml version="1.0" encoding="UTF-8"?>
<svg width="40px" height="40px" viewBox="0 0 40 40" version="1.1" xmlns="http://www.w3.org/2000/svg" xmlns:xlink="http://www.w3.org/1999/xlink">
    <!-- Generator: Sketch 46.1 (44463) - http://www.bohemiancoding.com/sketch -->
    <title>icon-effect-energizing</title>
    <desc>Created with Sketch.</desc>
    <defs></defs>
    <g id="Page-1" stroke="none" stroke-width="1" fill="none" fill-rule="evenodd">
        <g id="Artboard" transform="translate(-40.000000, -79.000000)">
            <g id="Group-6" transform="translate(43.099181, 81.811035)">
                <path d="M30.368687,21.0942157 L27.1618781,17.4168052 C25.9899712,16.0729201 23.9505188,15.9335043 22.6066337,17.1054112 C22.4958694,17.2020009 22.3918294,17.3060409 22.2952397,17.4168052 L16.9333805,23.565521 C15.7614736,24.9094061 15.9008894,26.9488585 17.2447745,28.1207654 C17.8327689,28.6335137 18.5865406,28.9160076 19.3666997,28.9160076 L19.9180483,28.9160076 L19.9180483,30.7505924 C18.5662541,31.1307951 17.1404188,31.3341669 15.6670835,31.3341669 C7.0143922,31.3341669 0,24.3197747 0,15.6670835 C0,7.0143922 7.0143922,0 15.6670835,0 C24.3197747,0 31.3341669,7.0143922 31.3341669,15.6670835 C31.3341669,17.574993 30.9931286,19.4032487 30.368687,21.0942157 Z M15.6670278,19.7278015 C17.9096757,19.7278015 19.727701,17.9097561 19.727701,15.6670835 C19.727701,13.4244108 17.9096757,11.6063654 15.6670278,11.6063654 C13.4243799,11.6063654 11.6063546,13.4244108 11.6063546,15.6670835 C11.6063546,17.9097561 13.4243799,19.7278015 15.6670278,19.7278015 Z" id="Combined-Shape" fill="#2DDE98"></path>
                <path d="M22.2829262,26.0065138 L18.8275802,26.0065138 C18.6573126,26.0065138 18.492804,26.0681673 18.3644758,26.1800732 C18.0711765,26.4358387 18.0407494,26.8809437 18.2965149,27.1742429 L24.1974959,33.9411971 C24.2185763,33.9653711 24.2412828,33.9880775 24.2654568,34.009158 C24.5587561,34.2649235 25.003861,34.2344963 25.2596265,33.9411971 L31.1606075,27.1742429 C31.2725134,27.0459147 31.3341669,26.8814061 31.3341669,26.7111385 C31.3341669,26.321985 31.0186957,26.0065138 30.6295422,26.0065138 L27.1741962,26.0065138 L27.1741962,18.8714395 C27.1741962,18.482286 26.8587249,18.1668148 26.4695714,18.1668148 L22.987551,18.1668148 C22.5983975,18.1668148 22.2829262,18.482286 22.2829262,18.8714395 L22.2829262,26.0065138 Z" id="Combined-Shape-Copy-3" fill="#FFFFFF" transform="translate(24.728556, 26.174771) scale(1, -1) translate(-24.728556, -26.174771) "></path>
            </g>
        </g>
    </g>
</svg>