<?xml version="1.0" encoding="UTF-8"?>
<svg width="40px" height="40px" viewBox="0 0 40 40" version="1.1" xmlns="http://www.w3.org/2000/svg" xmlns:xlink="http://www.w3.org/1999/xlink">
    <!-- Generator: Sketch 46.1 (44463) - http://www.bohemiancoding.com/sketch -->
    <title>icon-extraSta5</title>
    <desc>Created with Sketch.</desc>
    <defs></defs>
    <g id="Page-1" stroke="none" stroke-width="1" fill="none" fill-rule="evenodd">
        <g id="Artboard" transform="translate(-160.000000, -198.000000)" fill="#FEF468">
            <path d="M195.409339,214.197344 C195.723842,215.467502 195.890721,216.795892 195.890721,218.163259 C195.890721,223.235975 193.593972,227.772257 189.983634,230.788944 L184.632842,223.555466 C186.047452,222.194191 186.927661,220.281518 186.927661,218.163259 C186.927661,217.739451 186.892427,217.323873 186.824728,216.919294 L195.409339,214.197344 L195.409339,214.197344 Z M194.729979,212.082591 L186.134959,214.807841 C185.033597,212.616312 182.887037,211.040571 180.349553,210.734901 L180.574025,201.756022 C187.018452,202.192831 192.444303,206.34222 194.729979,212.082591 L194.729979,212.082591 Z M188.187149,232.095318 C185.654761,233.687636 182.657614,234.608619 179.445361,234.608619 C176.179428,234.608619 173.135853,233.656598 170.57701,232.014931 L175.711057,224.648689 C176.810044,225.282855 178.0853,225.645701 179.445302,225.645701 C180.660209,225.645701 181.807487,225.356148 182.821894,224.842287 L188.187149,232.095318 L188.187149,232.095318 Z M168.791805,230.691722 C165.247928,227.675252 163,223.181771 163,218.163259 C163,216.800084 163.165858,215.475647 163.478494,214.209028 L172.036274,217.11156 C171.987938,217.455185 171.962943,217.806303 171.962943,218.163259 C171.962943,220.133752 172.724632,221.926342 173.96964,223.262654 L168.791805,230.691722 L168.791805,230.691722 Z M164.156406,212.093494 C166.44374,206.33693 171.888126,202.177864 178.35221,201.753653 L178.126133,210.796734 C175.70533,211.22734 173.687215,212.82205 172.671199,214.981446 L164.156406,212.093494 L164.156406,212.093494 Z" id="Combined-Shape-Copy-9"></path>
        </g>
    </g>
</svg>