<?xml version="1.0" encoding="UTF-8"?>
<svg width="40px" height="40px" viewBox="0 0 40 40" version="1.1" xmlns="http://www.w3.org/2000/svg" xmlns:xlink="http://www.w3.org/1999/xlink">
    <!-- Generator: Sketch 46.1 (44463) - http://www.bohemiancoding.com/sketch -->
    <title>icon-sta1</title>
    <desc>Created with Sketch.</desc>
    <defs></defs>
    <g id="Page-1" stroke="none" stroke-width="1" fill="none" fill-rule="evenodd">
        <g id="Artboard" transform="translate(0.000000, -158.000000)">
            <g id="Group-7" transform="translate(2.000000, 161.000000)">
                <path d="M32.3598666,11.0825908 L23.7648467,13.8078411 C22.6634853,11.6163122 20.5169247,10.040571 17.9794415,9.73490138 L18.2039135,0.756021935 C24.6483401,1.19283105 30.0741907,5.34222028 32.3598666,11.0825908 L32.3598666,11.0825908 Z" id="Combined-Shape-Copy" fill="#2DDE98"></path>
                <path d="M33.039227,13.1973444 C33.35373,14.467502 33.5206093,15.7958921 33.5206093,17.1632589 C33.5206093,22.2359754 31.2238601,26.7722574 27.6135223,29.7889443 L22.2627302,22.5554661 C23.6773402,21.1941912 24.5575493,19.2815181 24.5575493,17.1632589 C24.5575493,16.7394513 24.522315,16.3238732 24.454616,15.9192942 L33.039227,13.1973444 L33.039227,13.1973444 Z M25.8170373,31.095318 C23.2846487,32.6876356 20.2875023,33.6086195 17.0752487,33.6086195 C13.8093165,33.6086195 10.7657408,32.6565981 8.20689761,31.0149313 L13.3409449,23.6486895 C14.4399318,24.2828555 15.715188,24.6457006 17.0751902,24.6457006 C18.2900966,24.6457006 19.4373751,24.3561479 20.4517816,23.8422871 L25.8170373,31.095318 L25.8170373,31.095318 Z M6.42169268,29.6917217 C2.8778162,26.6752523 0.629888057,22.1817715 0.629888057,17.1632589 C0.629888057,15.8000841 0.795745685,14.4756475 1.10838187,13.2090281 L9.66616201,16.1115598 C9.61782636,16.4551849 9.59283114,16.8063029 9.59283114,17.1632589 C9.59283114,19.1337524 10.3545201,20.9263419 11.5995277,22.2626541 L6.42169268,29.6917217 L6.42169268,29.6917217 Z M1.78629388,11.0934939 C4.0736279,5.33692953 9.51801441,1.1778642 15.9820983,0.753653008 L15.7560212,9.79673425 C13.3352185,10.22734 11.3171027,11.8220504 10.3010866,13.9814456 L1.78629388,11.0934939 L1.78629388,11.0934939 Z" id="Combined-Shape" fill="#182359"></path>
            </g>
        </g>
    </g>
</svg>