<?xml version="1.0" encoding="UTF-8"?>
<svg width="40px" height="40px" viewBox="0 0 40 40" version="1.1" xmlns="http://www.w3.org/2000/svg" xmlns:xlink="http://www.w3.org/1999/xlink">
    <!-- Generator: Sketch 46.1 (44463) - http://www.bohemiancoding.com/sketch -->
    <title>icon-effect-spicy</title>
    <desc>Created with Sketch.</desc>
    <defs></defs>
    <g id="Page-1" stroke="none" stroke-width="1" fill="none" fill-rule="evenodd">
        <g id="Artboard" transform="translate(-160.000000, -118.000000)">
            <g id="Group-4" transform="translate(166.599018, 124.000000)">
                <path d="M23.8548539,11.3282867 L24.3978417,11.0147926 C25.6402775,10.2974719 26.0659675,8.70877537 25.3486468,7.46633954 C24.6313261,6.2239037 23.0426296,5.79821374 21.8001937,6.51553441 L15.5733347,10.1106131 L15.5733347,2.92045569 C15.5733347,1.48581436 14.4103282,0.322807772 12.9756868,0.322807772 C11.5410455,0.322807772 10.3780389,1.48581436 10.3780389,2.92045569 L10.3780389,10.1106131 L4.15117991,6.51553441 C2.90874407,5.79821374 1.32004753,6.2239037 0.602726867,7.46633954 C-0.114593797,8.70877537 0.311096158,10.2974719 1.55353199,11.0147926 L7.780391,14.6098713 L1.55353199,18.20495 C0.311096158,18.9222707 -0.114593797,20.5109672 0.602726867,21.7534031 C1.32004753,22.9958389 2.90874407,23.4215289 4.15117991,22.7042082 L10.3780389,19.1091295 L10.3780389,26.2992869 C10.3780389,27.7339282 11.5410455,28.8969348 12.9756868,28.8969348 C14.4103282,28.8969348 15.5733347,27.7339282 15.5733347,26.2992869 L15.5733347,23.7995375 L14.559435,22.6368472 C13.8810563,21.6167891 13.2892601,20.452444 14.559435,19.3448144 C14.9299309,19.0217312 16.0087741,18.8675932 17.7959648,18.8824004 L17.7959648,13.5401541 C17.7959648,11.8548685 18.7465921,11.3077409 20.4318777,11.3077409 L23.4222407,11.3077409 C23.5690991,11.3077409 23.7135345,11.3146173 23.8548539,11.3282867 Z" id="Combined-Shape" fill="#1DAEFC"></path>
                <path d="M19.5732398,20.5416125 L16.3074144,20.5416125 C16.1464858,20.5416125 15.9910002,20.5998845 15.8697107,20.7056525 C15.5924984,20.9473896 15.5637402,21.3680812 15.8054773,21.6452934 L21.3827981,28.04109 C21.4027223,28.0639381 21.4241833,28.0853991 21.4470314,28.1053233 C21.7242437,28.3470605 22.1449352,28.3183022 22.3866724,28.04109 L27.9639931,21.6452934 C28.0697612,21.5240039 28.1280331,21.3685183 28.1280331,21.2075896 C28.1280331,20.8397806 27.829865,20.5416125 27.462056,20.5416125 L24.1962307,20.5416125 L24.1962307,13.7978867 C24.1962307,13.4300777 23.8980626,13.1319096 23.5302536,13.1319096 L20.2392169,13.1319096 C19.8714079,13.1319096 19.5732398,13.4300777 19.5732398,13.7978867 L19.5732398,20.5416125 Z" id="Combined-Shape-Copy-2" fill="#FFFFFF"></path>
            </g>
        </g>
    </g>
</svg>