<?xml version="1.0" encoding="UTF-8"?>
<svg width="40px" height="40px" viewBox="0 0 40 40" version="1.1" xmlns="http://www.w3.org/2000/svg" xmlns:xlink="http://www.w3.org/1999/xlink">
    <!-- Generator: Sketch 46.1 (44463) - http://www.bohemiancoding.com/sketch -->
    <title>icon-hp20</title>
    <desc>Created with Sketch.</desc>
    <defs></defs>
    <g id="Page-1" stroke="none" stroke-width="1" fill="none" fill-rule="evenodd">
        <g id="Artboard" transform="translate(0.000000, -40.000000)">
            <g id="hp_5+" transform="translate(4.000000, 44.500000)">
                <path d="M15.8390152,4.04265632 C14.5908707,2.53404709 12.4405368,0.865675403 9.03215506,0.865675403 C3.23047872,0.865675403 0.323863636,6.27335197 0.323863636,11.3236389 C0.323863636,19.6721403 13.3691351,28.5291579 14.9695064,29.6282305 C15.2316135,29.8079218 15.5353143,29.8979335 15.8390152,29.8979335 C16.142716,29.8979335 16.4464168,29.8079218 16.7085239,29.6282305 C18.3088952,28.5291579 31.3541667,19.6721403 31.3541667,11.3236389 C31.3541667,6.27335197 28.4468914,0.865675403 22.6448849,0.865675403 C19.2378237,0.865675403 17.0871596,2.53404709 15.8390152,4.04265632 Z" id="Path" fill="#B51949"></path>
                <path d="M22.1579777,15.3881514 C23.6082913,15.3881514 24.8950777,15.6375988 26.014351,16.1402563 C27.149955,16.6502478 28.0360028,17.3719963 28.6609613,18.3027465 C29.2882133,19.2369121 29.6028169,20.2947475 29.6028169,21.4623699 C29.6028169,22.7971583 29.2791062,23.9848717 28.6301837,25.0134355 C27.9815796,26.0414945 27.0658719,26.8363637 25.8940981,27.3927771 C24.7370958,27.9421764 23.4029436,28.2149413 21.8965457,28.2149413 C20.6891634,28.2149413 19.4363833,28.0103542 18.13915,27.6029569 C16.8426096,27.1957773 15.6911421,26.6461857 14.686484,25.9534578 L14.2961954,25.6843475 L16.1930149,21.9340737 L16.7133005,22.3379244 C17.4557135,22.9141926 18.2454255,23.3616148 19.0836735,23.6814752 C19.9117662,23.9974605 20.7351678,24.1545582 21.556684,24.1545582 C22.5928434,24.1545582 23.3853942,23.9237059 23.9518632,23.4758495 C24.4896642,23.0506583 24.752129,22.4825642 24.752129,21.7232748 C24.752129,21.0051984 24.4999178,20.4819218 23.9800151,20.0996079 C23.4245457,19.6911399 22.5489883,19.474625 21.3475384,19.474625 C20.7288577,19.474625 19.9081684,19.4961786 18.886877,19.5393664 C17.8670092,19.582494 17.0823487,19.6298229 16.5354882,19.6809877 L15.9418691,19.7365273 L15.9418691,8.70898438 L28.7923776,8.70898438 L28.7923776,12.847639 L20.269693,12.847639 L20.269693,15.3881514 L22.1579777,15.3881514 Z" id="5" fill="#FFFFFF" fill-rule="nonzero"></path>
                <path d="M22.1579777,15.3881514 L20.269693,15.3881514 L20.269693,12.847639 L28.7923776,12.847639 L28.7923776,8.70898438 L15.9418691,8.70898438 L15.9418691,19.7365273 L16.5354882,19.6809877 C17.0823487,19.6298229 17.8670092,19.582494 18.886877,19.5393664 C19.9081684,19.4961786 20.7288577,19.474625 21.3475384,19.474625 C22.5489883,19.474625 23.4245457,19.6911399 23.9800151,20.0996079 C24.4999178,20.4819218 24.752129,21.0051984 24.752129,21.7232748 C24.752129,22.4825642 24.4896642,23.0506583 23.9518632,23.4758495 C23.3853942,23.9237059 22.5928434,24.1545582 21.556684,24.1545582 C20.7351678,24.1545582 19.9117662,23.9974605 19.0836735,23.6814752 C18.2454255,23.3616148 17.4557135,22.9141926 16.7133005,22.3379244 L16.1930149,21.9340737 L14.2961954,25.6843475 L14.686484,25.9534578 C15.6911421,26.6461857 16.8426096,27.1957773 18.13915,27.6029569 C19.4363833,28.0103542 20.6891634,28.2149413 21.8965457,28.2149413 C23.4029436,28.2149413 24.7370958,27.9421764 25.8940981,27.3927771 C27.0658719,26.8363637 27.9815796,26.0414945 28.6301837,25.0134355 C29.2791062,23.9848717 29.6028169,22.7971583 29.6028169,21.4623699 C29.6028169,20.2947475 29.2882133,19.2369121 28.6609613,18.3027465 C28.0360028,17.3719963 27.149955,16.6502478 26.014351,16.1402563 C24.8950777,15.6375988 23.6082913,15.3881514 22.1579777,15.3881514 Z M19.7966915,21.8128914 C20.4003206,22.0432255 20.9826909,22.1545582 21.556684,22.1545582 C22.1665045,22.1545582 22.5291835,22.0510743 22.7114761,21.9069518 C22.7583771,21.8698714 22.752129,21.8835153 22.752129,21.7232748 C22.752129,21.6276417 22.7900317,21.7070843 22.7951689,21.7108619 C22.6319539,21.5908407 22.1474741,21.474625 21.3475384,21.474625 C20.7972744,21.474625 20.0644431,21.492993 19.155504,21.529943 C19.3654802,21.6356308 19.5791379,21.7298769 19.7966915,21.8128914 Z M13.9418691,19.7365273 L13.9418691,8.70898438 C13.9418691,7.60441488 14.8372996,6.70898438 15.9418691,6.70898438 L28.7923776,6.70898438 C29.8969471,6.70898438 30.7923776,7.60441488 30.7923776,8.70898438 L30.7923776,12.847639 C30.7923776,13.9522085 29.8969471,14.847639 28.7923776,14.847639 L27.8484334,14.847639 C28.8538399,15.4583289 29.685504,16.2408334 30.3213819,17.1878457 C31.171928,18.4545632 31.6028169,19.9008946 31.6028169,21.4623699 C31.6028169,23.1676165 31.1766614,24.7254263 30.3216786,26.0806023 C29.4677673,27.4340801 28.2613492,28.4827225 26.7519864,29.1994391 C25.3164473,29.8811008 23.6908271,30.2149413 21.8965457,30.2149413 C20.4804351,30.2149413 19.026739,29.9780141 17.5399047,29.5110725 C16.0564908,29.0452051 14.7244194,28.4089625 13.5511732,27.5999903 L13.1608846,27.33088 C12.3374175,26.7630862 12.0600411,25.6742466 12.5114874,24.781675 L14.408307,21.0314013 C14.1193491,20.6779704 13.9418691,20.2296039 13.9418691,19.7365273 Z" id="5" fill="#050F2C" fill-rule="nonzero"></path>
            </g>
        </g>
    </g>
</svg>