<?xml version="1.0" encoding="UTF-8"?>
<svg width="40px" height="40px" viewBox="0 0 40 40" version="1.1" xmlns="http://www.w3.org/2000/svg" xmlns:xlink="http://www.w3.org/1999/xlink">
    <!-- Generator: Sketch 46.1 (44463) - http://www.bohemiancoding.com/sketch -->
    <title>icon-weapon</title>
    <desc>Created with Sketch.</desc>
    <defs></defs>
    <g id="Page-1" stroke="none" stroke-width="1" fill="none" fill-rule="evenodd">
        <g id="Artboard" transform="translate(-200.000000, 0.000000)" fill="#FFFFFF">
            <path d="M212.471538,30.4809702 C212.377621,30.6228272 212.268214,30.7574424 212.143318,30.8824269 L207.766966,35.2618826 C206.759886,36.269677 205.127086,36.269677 204.120006,35.2618826 L203.75531,34.8969279 C202.74823,33.8891335 202.74823,32.2551759 203.75531,31.2473815 L208.131662,26.8679259 C208.256558,26.7429414 208.391078,26.6334572 208.532834,26.5394733 L205.214094,23.2183795 C204.40843,22.4121439 204.40843,21.1049779 205.214094,20.2987424 C206.019758,19.4925068 207.325998,19.4925068 208.131662,20.2987424 L218.707846,30.8824269 C219.51351,31.6886624 219.51351,32.9958285 218.707846,33.802064 C217.902182,34.6082995 216.595942,34.6082995 215.790278,33.802064 L212.471538,30.4809702 Z M215.029758,25.0120027 C215.106952,24.9751008 215.179296,24.9246584 215.243234,24.8606753 L223.266546,16.8316733 C223.56867,16.529335 223.56867,16.0391477 223.266546,15.7368094 C222.964422,15.4344711 222.474582,15.4344711 222.172458,15.7368094 L214.149146,23.7658114 C214.085208,23.8297944 214.034802,23.9021905 213.997926,23.9794387 L210.684534,20.663697 L225.257772,4.61317731 L235.16226,3.85546875 L234.405088,13.766981 L218.34315,28.3277444 L215.029758,25.0120027 L215.029758,25.0120027 Z" id="icon_weapon"></path>
        </g>
    </g>
</svg>