<?xml version="1.0" encoding="UTF-8"?>
<svg width="40px" height="40px" viewBox="0 0 40 40" version="1.1" xmlns="http://www.w3.org/2000/svg" xmlns:xlink="http://www.w3.org/1999/xlink">
    <!-- Generator: Sketch 46.1 (44463) - http://www.bohemiancoding.com/sketch -->
    <title>icon-effect-sneaky</title>
    <desc>Created with Sketch.</desc>
    <defs></defs>
    <g id="Page-1" stroke="none" stroke-width="1" fill="none" fill-rule="evenodd">
        <g id="Artboard" transform="translate(-40.000000, -118.000000)" fill-rule="nonzero" fill="#B84592">
            <path d="M54.7025725,135.130363 L51.3175295,131.339741 L48.7703543,134.892694 C47.8535846,136.171459 46.0737517,136.464915 44.7949862,135.548145 C43.5162207,134.631375 43.2227651,132.851542 44.1395348,131.572777 L48.7585875,125.129845 C49.8213598,123.647426 51.9840519,123.531669 53.1989897,124.892175 L56.6015514,128.702415 L59.2144054,125.113099 C60.2788717,123.650826 62.418835,123.537742 63.6314877,124.879682 L67.2666166,128.902373 L70.6003452,124.952312 C71.6151635,123.749876 73.4126031,123.597782 74.6150388,124.6126 C75.8174745,125.627419 75.9695684,127.424858 74.9547501,128.627294 L69.5171154,135.070226 C68.4040246,136.389103 66.3832308,136.423307 65.2261433,135.142856 L61.756213,131.302977 L59.1308775,134.909439 C58.0623669,136.377268 55.9118711,136.484554 54.7025725,135.130363 Z M54.7025725,151.091537 L51.3175295,147.300914 L48.7703543,150.853867 C47.8535846,152.132633 46.0737517,152.426088 44.7949862,151.509319 C43.5162207,150.592549 43.2227651,148.812716 44.1395348,147.533951 L48.7585875,141.091018 C49.8213598,139.6086 51.9840519,139.492843 53.1989897,140.853349 L56.6015514,144.663589 L59.2144054,141.074273 C60.2788717,139.612 62.418835,139.498915 63.6314877,140.840856 L67.2666166,144.863546 L70.6003452,140.913485 C71.6151635,139.71105 73.4126031,139.558956 74.6150388,140.573774 C75.8174745,141.588592 75.9695684,143.386032 74.9547501,144.588468 L69.5171154,151.0314 C68.4040246,152.350277 66.3832308,152.384481 65.2261433,151.10403 L61.756213,147.264151 L59.1308775,150.870613 C58.0623669,152.338441 55.9118711,152.445728 54.7025725,151.091537 Z" id="Combined-Shape"></path>
        </g>
    </g>
</svg>