<?xml version="1.0" encoding="UTF-8"?>
<svg width="40px" height="40px" viewBox="0 0 40 40" version="1.1" xmlns="http://www.w3.org/2000/svg" xmlns:xlink="http://www.w3.org/1999/xlink">
    <!-- Generator: Sketch 46.1 (44463) - http://www.bohemiancoding.com/sketch -->
    <title>icon-effect-chilly</title>
    <desc>Created with Sketch.</desc>
    <defs></defs>
    <g id="Page-1" stroke="none" stroke-width="1" fill="none" fill-rule="evenodd">
        <g id="Artboard" transform="translate(-120.000000, -118.000000)">
            <g id="Group" transform="translate(125.123228, 123.000000)">
                <path d="M13.1635195,20.3741129 C10.1387527,20.3741129 7.68669483,17.922055 7.68669483,14.8972883 C7.68669483,11.8725216 10.1387527,9.42046366 13.1635195,9.42046366 C16.1882862,9.42046366 18.6403441,11.8725216 18.6403441,14.8972883 C18.6403441,17.922055 16.1882862,20.3741129 13.1635195,20.3741129 Z M12.7405235,7.12557815 C10.821857,7.12557815 9.26647058,5.57019169 9.26647058,3.65152525 C9.26647058,1.73285881 10.821857,0.177472347 12.7405235,0.177472347 C14.6591899,0.177472347 16.2145764,1.73285881 16.2145764,3.65152525 C16.2145764,5.57019169 14.6591899,7.12557815 12.7405235,7.12557815 Z M12.7405235,29.8692532 C10.821857,29.8692532 9.26647058,28.3138668 9.26647058,26.3952003 C9.26647058,24.4765339 10.821857,22.9211474 12.7405235,22.9211474 C14.6591899,22.9211474 16.2145764,24.4765339 16.2145764,26.3952003 C16.2145764,28.3138668 14.6591899,29.8692532 12.7405235,29.8692532 Z M4.06994784,24.2445177 C2.1512814,24.2445177 0.595894934,22.6891312 0.595894934,20.7704648 C0.595894934,18.8517983 2.1512814,17.2964119 4.06994784,17.2964119 C5.98861427,17.2964119 7.54400074,18.8517983 7.54400074,20.7704648 C7.54400074,22.6891312 5.98861427,24.2445177 4.06994784,24.2445177 Z M22.973846,12.8945166 C21.0551796,12.8945166 19.4997931,11.3391301 19.4997931,9.42046366 C19.4997931,7.50179723 21.0551796,5.94641076 22.973846,5.94641076 C24.8925125,5.94641076 26.4478989,7.50179723 26.4478989,9.42046366 C26.4478989,11.3391301 24.8925125,12.8945166 22.973846,12.8945166 Z M3.67059235,13.1590258 C1.75192591,13.1590258 0.196539448,11.6036393 0.196539448,9.68497291 C0.196539448,7.76630647 1.75192591,6.21092001 3.67059235,6.21092001 C5.58925879,6.21092001 7.14464525,7.76630647 7.14464525,9.68497291 C7.14464525,11.6036393 5.58925879,13.1590258 3.67059235,13.1590258 Z" id="Combined-Shape" fill="#FD6C5F"></path>
                <path d="M21.2349045,22.4343803 L17.9690792,22.4343803 C17.8081505,22.4343803 17.652665,22.4926523 17.5313754,22.5984203 C17.2541632,22.8401574 17.2254049,23.260849 17.467142,23.5380612 L23.0444628,29.9338578 C23.064387,29.9567059 23.0858481,29.9781669 23.1086962,29.9980912 C23.3859084,30.2398283 23.8066,30.21107 24.0483371,29.9338578 L29.6256579,23.5380612 C29.7314259,23.4167717 29.7896978,23.2612861 29.7896978,23.1003575 C29.7896978,22.7325485 29.4915297,22.4343803 29.1237207,22.4343803 L25.8578954,22.4343803 L25.8578954,15.6906545 C25.8578954,15.3228455 25.5597273,15.0246774 25.1919183,15.0246774 L21.9008816,15.0246774 C21.5330726,15.0246774 21.2349045,15.3228455 21.2349045,15.6906545 L21.2349045,22.4343803 Z" id="Combined-Shape" fill="#FFFFFF"></path>
            </g>
        </g>
    </g>
</svg>