<?xml version="1.0" encoding="UTF-8"?>
<svg width="40px" height="40px" viewBox="0 0 40 40" version="1.1" xmlns="http://www.w3.org/2000/svg" xmlns:xlink="http://www.w3.org/1999/xlink">
    <!-- Generator: Sketch 46.1 (44463) - http://www.bohemiancoding.com/sketch -->
    <title>icon-effect-though</title>
    <desc>Created with Sketch.</desc>
    <defs></defs>
    <g id="Page-1" stroke="none" stroke-width="1" fill="none" fill-rule="evenodd">
        <g id="Artboard" transform="translate(-200.000000, -79.000000)" fill="#FFFFFF">
            <g id="Group-3" transform="translate(206.000000, 87.268643)">
                <path d="M24.1717204,9.15569483 L26.5159329,7.09079868 C26.6917789,6.93590497 26.7090779,6.66743034 26.5545712,6.4911438 C26.538004,6.47224124 26.5197947,6.45485137 26.5001579,6.43917921 L18.6558104,0.178596317 L18.6558174,0.178587525 C18.4726783,0.032424058 18.206022,0.0627705908 18.0602238,0.246368404 C18.036602,0.276114374 18.0170695,0.308904161 18.0021494,0.343859621 C17.2128195,2.19313313 15.7107903,3.06477635 13.4960618,2.9587893 C11.254962,2.85154023 9.60975146,1.94218934 8.56043012,0.230736625 L8.56043674,0.230732549 C8.43785881,0.0308068228 8.17682294,-0.0316470205 7.9773968,0.0912379856 C7.96378494,0.0996255225 7.95065704,0.108777953 7.93807598,0.118651452 L0.449653761,5.99549524 C0.265333209,6.14014829 0.232883311,6.40720841 0.377174887,6.59199071 C0.382322844,6.59858327 0.38766404,6.60502186 0.39319148,6.61129804 L4.44375238,11.2105425 C4.59868045,11.3864569 4.86652493,11.4031551 5.04199976,11.2478389 C5.04983629,11.2409026 5.05741416,11.2336781 5.06471782,11.2261801 L5.93887145,10.3287668 L5.93887792,10.3287732 C6.10241733,10.1608823 6.37075456,10.1576868 6.5382259,10.3216359 C6.6140575,10.3958727 6.65939141,10.4958991 6.66528811,10.6019906 C6.93727762,15.4955476 6.58857578,19.3353398 5.61918258,22.1213672 C5.80365961,22.4139616 12.690422,22.5222532 17.3212938,22.5576529 L17.3212938,20.0196985 L16.8001858,20.0196985 C16.0628173,20.0196985 15.350389,19.7526989 14.7946452,19.2680741 C13.5244702,18.1604446 13.3927011,16.2328532 14.5003306,14.9626783 L19.5680996,9.15121057 C19.6593916,9.0465215 19.7577251,8.94818797 19.8624142,8.85689605 C21.1325891,7.74926652 23.0601805,7.88103562 24.16781,9.15121057 L24.1717204,9.15569483 Z M13.2855895,8.59187598 C14.1113896,8.59187598 14.7808328,7.92075573 14.7808328,7.09288694 C14.7808328,6.26501816 14.1113896,5.59389791 13.2855895,5.59389791 C12.4597895,5.59389791 11.7903463,6.26501816 11.7903463,7.09288694 C11.7903463,7.92075573 12.4597895,8.59187598 13.2855895,8.59187598 Z M13.2855895,13.6515086 C14.0897873,13.6515086 14.7417184,12.9979443 14.7417184,12.1917319 C14.7417184,11.3855194 14.0897873,10.7319551 13.2855895,10.7319551 C12.4813917,10.7319551 11.8294606,11.3855194 11.8294606,12.1917319 C11.8294606,12.9979443 12.4813917,13.6515086 13.2855895,13.6515086 Z" id="Combined-Shape"></path>
                <path d="M19.7145795,17.3410593 L16.4487542,17.3410593 C16.2878256,17.3410593 16.13234,17.3993312 16.0110504,17.5050992 C15.7338382,17.7468364 15.70508,18.1675279 15.9468171,18.4447402 L21.5241379,24.8405367 C21.5440621,24.8633848 21.5655231,24.8848459 21.5883712,24.9047701 C21.8655834,25.1465072 22.286275,25.117749 22.5280121,24.8405367 L28.1053329,18.4447402 C28.211101,18.3234506 28.2693729,18.1679651 28.2693729,18.0070364 C28.2693729,17.6392274 27.9712048,17.3410593 27.6033958,17.3410593 L24.3375705,17.3410593 L24.3375705,10.5973334 C24.3375705,10.2295244 24.0394024,9.93135632 23.6715934,9.93135632 L20.3805566,9.93135632 C20.0127476,9.93135632 19.7145795,10.2295244 19.7145795,10.5973334 L19.7145795,17.3410593 Z" id="Combined-Shape-Copy-4" transform="translate(22.026070, 17.500088) scale(1, -1) translate(-22.026070, -17.500088) "></path>
            </g>
        </g>
    </g>
</svg>