<?xml version="1.0" encoding="UTF-8"?>
<svg width="40px" height="40px" viewBox="0 0 40 40" version="1.1" xmlns="http://www.w3.org/2000/svg" xmlns:xlink="http://www.w3.org/1999/xlink">
    <!-- Generator: Sketch 46.1 (44463) - http://www.bohemiancoding.com/sketch -->
    <title>icon-armor</title>
    <desc>Created with Sketch.</desc>
    <defs></defs>
    <g id="Page-1" stroke="none" stroke-width="1" fill="none" fill-rule="evenodd">
        <g id="Artboard" transform="translate(-120.000000, 0.000000)" fill="#FFFFFF">
            <path d="M132.440183,4.59876922 C132.457365,4.58528492 132.475294,4.57278539 132.493883,4.56133047 C132.766241,4.39350563 133.122739,4.47879924 133.290145,4.7518391 L133.290136,4.75184466 C134.723201,7.08918667 136.970075,8.33109304 140.03076,8.47756379 C143.055429,8.622311 145.10676,7.43190222 146.184753,4.90633747 C146.205129,4.85859857 146.231805,4.81381735 146.264065,4.77319309 C146.463183,4.52245237 146.827357,4.48100791 147.077471,4.6806243 L147.077462,4.68063631 L157.790538,13.2307547 C157.817356,13.2521583 157.842224,13.2759078 157.86485,13.3017231 C158.075861,13.5424788 158.052236,13.9091363 157.812082,14.1206756 L151.360229,19.8037809 C151.349774,19.8129905 151.33899,19.8218191 151.3279,19.8302494 C151.073165,20.0238893 150.710077,19.9738441 150.516921,19.7184704 L149.875417,18.870332 C149.771266,18.7326328 149.611317,18.6486321 149.4391,18.6411906 C149.119707,18.6273897 148.849629,18.8757695 148.835862,19.1959624 C148.551324,25.8141434 149.236982,31.1686498 150.892841,35.2594819 C151.476772,35.2815829 129.658774,35.2594819 129.273255,34.64802 C130.597162,30.8431244 131.073386,25.5990955 130.701928,18.9159332 C130.693875,18.7710432 130.631962,18.6344365 130.528399,18.5330509 C130.299682,18.3091446 129.933212,18.3135086 129.709865,18.5427983 L129.709856,18.5427897 L128.516019,19.7683927 C128.506044,19.7786327 128.495695,19.7884993 128.484993,19.7979722 C128.245346,20.0100886 127.879549,19.9872838 127.667963,19.7470363 L122.136085,13.4658185 C122.128537,13.4572471 122.121242,13.4484539 122.114211,13.4394504 C121.917151,13.187092 121.961469,12.8223663 122.213196,12.6248127 L132.440183,4.59876922 Z M139.743317,16.1707066 C140.871117,16.1707066 141.78538,15.2541533 141.78538,14.1235276 C141.78538,12.9929019 140.871117,12.0763486 139.743317,12.0763486 C138.615516,12.0763486 137.701253,12.9929019 137.701253,14.1235276 C137.701253,15.2541533 138.615516,16.1707066 139.743317,16.1707066 Z M139.743317,23.0806795 C140.841615,23.0806795 141.731961,22.1881025 141.731961,21.087053 C141.731961,19.9860035 140.841615,19.0934265 139.743317,19.0934265 C138.645018,19.0934265 137.754672,19.9860035 137.754672,21.087053 C137.754672,22.1881025 138.645018,23.0806795 139.743317,23.0806795 Z" id="icon_armor"></path>
        </g>
    </g>
</svg>