<?xml version="1.0" encoding="UTF-8"?>
<svg width="40px" height="40px" viewBox="0 0 40 40" version="1.1" xmlns="http://www.w3.org/2000/svg" xmlns:xlink="http://www.w3.org/1999/xlink">
    <!-- Generator: Sketch 46.1 (44463) - http://www.bohemiancoding.com/sketch -->
    <title>icon-effect-energizing</title>
    <desc>Created with Sketch.</desc>
    <defs></defs>
    <g id="Page-1" stroke="none" stroke-width="1" fill="none" fill-rule="evenodd">
        <g id="Artboard" transform="translate(-40.000000, -79.000000)">
            <g id="Group-6" transform="translate(43.969653, 82.768555)">
                <path d="M28.7030088,19.9372286 L25.6720886,16.4615188 C24.5644591,15.1913438 22.6368677,15.0595747 21.3666927,16.1672043 C21.2620037,16.2584962 21.1636701,16.3568297 21.0723782,16.4615188 L16.0046092,22.2729865 C14.8969797,23.5431614 15.0287488,25.4707528 16.2989237,26.5783824 C16.8546675,27.0630071 17.5670959,27.3300067 18.3044644,27.3300067 L18.8255724,27.3300067 L18.8255724,29.0639672 C17.5479221,29.4233163 16.2002918,29.6155335 14.8077668,29.6155335 C6.629663,29.6155335 0,22.9858705 0,14.8077668 C0,6.629663 6.629663,0 14.8077668,0 C22.9858705,0 29.6155335,6.629663 29.6155335,14.8077668 C29.6155335,16.6110302 29.2932006,18.3390088 28.7030088,19.9372286 Z M14.8077141,18.6457603 C16.927356,18.6457603 18.6456653,16.9274321 18.6456653,14.8077668 C18.6456653,12.6881014 16.927356,10.9697732 14.8077141,10.9697732 C12.6880722,10.9697732 10.9697629,12.6881014 10.9697629,14.8077668 C10.9697629,16.9274321 12.6880722,18.6457603 14.8077141,18.6457603 Z" id="Combined-Shape" fill="#2DDE98"></path>
                <path d="M21.0607402,24.5800944 L17.7949148,24.5800944 C17.6339862,24.5800944 17.4785006,24.6383663 17.357211,24.7441343 C17.0799988,24.9858715 17.0512406,25.406563 17.2929777,25.6837753 L22.8702985,32.0795718 C22.8902227,32.1024199 22.9116837,32.123881 22.9345318,32.1438052 C23.2117441,32.3855423 23.6324356,32.3567841 23.8741728,32.0795718 L29.4514935,25.6837753 C29.5572616,25.5624857 29.6155335,25.4070001 29.6155335,25.2460715 C29.6155335,24.8782625 29.3173654,24.5800944 28.9495564,24.5800944 L25.6837311,24.5800944 L25.6837311,17.8363685 C25.6837311,17.4685595 25.385563,17.1703914 25.017754,17.1703914 L21.7267173,17.1703914 C21.3589083,17.1703914 21.0607402,17.4685595 21.0607402,17.8363685 L21.0607402,24.5800944 Z" id="Combined-Shape-Copy-3" fill="#FFFFFF" transform="translate(23.372231, 24.739123) scale(1, -1) translate(-23.372231, -24.739123) "></path>
            </g>
        </g>
    </g>
</svg>