<?xml version="1.0" encoding="UTF-8"?>
<svg width="40px" height="40px" viewBox="0 0 40 40" version="1.1" xmlns="http://www.w3.org/2000/svg" xmlns:xlink="http://www.w3.org/1999/xlink">
    <!-- Generator: Sketch 46.1 (44463) - http://www.bohemiancoding.com/sketch -->
    <title>icon-time</title>
    <desc>Created with Sketch.</desc>
    <defs></defs>
    <g id="Page-1" stroke="none" stroke-width="1" fill="none" fill-rule="evenodd">
        <g id="Artboard" transform="translate(-320.000000, 0.000000)" fill="#FFFFFF">
            <path d="M341.681985,17.7933414 L347.897059,17.7933414 L347.897059,21.3448119 L341.238051,21.3448119 L338.130515,21.3448119 L338.130515,9.80253253 L341.681985,9.80253253 L341.681985,17.7933414 Z M339.90625,34.6628267 C331.570202,34.6628267 324.8125,27.9051246 324.8125,19.5690767 C324.8125,11.2330287 331.570202,4.47532665 339.90625,4.47532665 C348.242298,4.47532665 355,11.2330287 355,19.5690767 C355,27.9051246 348.242298,34.6628267 339.90625,34.6628267 Z M339.943842,31.1301521 C346.308086,31.1301521 351.467325,25.9709129 351.467325,19.6066688 C351.467325,13.2424247 346.308086,8.08318543 339.943842,8.08318543 C333.579598,8.08318543 328.420359,13.2424247 328.420359,19.6066688 C328.420359,25.9709129 333.579598,31.1301521 339.943842,31.1301521 Z" id="icon_time"></path>
        </g>
    </g>
</svg>