<?xml version="1.0" encoding="UTF-8"?>
<svg width="40px" height="40px" viewBox="0 0 40 40" version="1.1" xmlns="http://www.w3.org/2000/svg" xmlns:xlink="http://www.w3.org/1999/xlink">
    <!-- Generator: Sketch 46.1 (44463) - http://www.bohemiancoding.com/sketch -->
    <title>icon-time</title>
    <desc>Created with Sketch.</desc>
    <defs></defs>
    <g id="Page-1" stroke="none" stroke-width="1" fill="none" fill-rule="evenodd">
        <g id="Artboard" transform="translate(-320.000000, 0.000000)" fill="#2DDE98">
            <path d="M330.97428,5.20488286 L348.731081,5.20488286 C349.75368,5.20488286 350.582661,6.08255391 350.582661,7.16521602 C350.582661,8.24787812 349.75368,9.12554917 348.731081,9.12554917 L330.97428,9.12554917 C329.95168,9.12554917 329.1227,8.24787812 329.1227,7.16521602 C329.1227,6.08255391 329.95168,5.20488286 330.97428,5.20488286 Z M330.97428,31.6575706 L348.731081,31.6575706 C349.75368,31.6575706 350.582661,32.5352417 350.582661,33.6179038 C350.582661,34.7005659 349.75368,35.5782369 348.731081,35.5782369 L330.97428,35.5782369 C329.95168,35.5782369 329.1227,34.7005659 329.1227,33.6179038 C329.1227,32.5352417 329.95168,31.6575706 330.97428,31.6575706 Z M338.365718,20.1481318 C338.386528,19.0196044 332.499884,19.6188111 332.192077,12.0884462 L347.346886,12.0884462 C347.566715,19.0935988 340.777083,19.1303548 340.806563,20.1481318 C340.836044,21.1659087 347.566715,21.5790928 347.566715,28.699966 L331.972249,28.699966 C332.192077,21.5215878 338.344908,21.2766591 338.365718,20.1481318 Z" id="Combined-Shape"></path>
        </g>
    </g>
</svg>