<?xml version="1.0" encoding="UTF-8"?>
<svg width="40px" height="40px" viewBox="0 0 40 40" version="1.1" xmlns="http://www.w3.org/2000/svg" xmlns:xlink="http://www.w3.org/1999/xlink">
    <!-- Generator: Sketch 46.1 (44463) - http://www.bohemiancoding.com/sketch -->
    <title>icon-effect-though</title>
    <desc>Created with Sketch.</desc>
    <defs></defs>
    <g id="Page-1" stroke="none" stroke-width="1" fill="none" fill-rule="evenodd">
        <g id="Artboard" transform="translate(-200.000000, -79.000000)" fill="#FFFFFF">
            <g id="Group-3" transform="translate(203.000000, 86.268643)">
                <path d="M28.3392584,10.7342629 L31.0876454,8.31335017 C31.2938097,8.13175065 31.3140913,7.81698729 31.1329456,7.61030652 C31.113522,7.5881449 31.0921731,7.56775678 31.0691506,7.54938253 L21.8723294,0.209388785 L21.8723376,0.209378478 C21.6576229,0.0380144128 21.3449913,0.0735931064 21.1740555,0.288845715 C21.146361,0.3237203 21.1234608,0.362163499 21.1059682,0.403145762 C20.180547,2.57125953 18.4195472,3.59318607 15.822969,3.46892538 C13.1954727,3.34318509 11.2666052,2.27704957 10.0363663,0.270518801 L10.0363741,0.270514023 C9.89266205,0.036118344 9.58661999,-0.0371034034 9.35281004,0.106968673 C9.3368513,0.116802337 9.32145998,0.127532772 9.30670977,0.139108598 L0.527180271,7.02920132 C0.311080314,7.19879455 0.273035607,7.51189951 0.44220504,7.72854083 C0.448240575,7.73627005 0.454502668,7.74381873 0.460983115,7.75117701 L5.20991658,13.1433946 C5.39155639,13.3496391 5.70558095,13.3692163 5.91131006,13.1871214 C5.92049772,13.1789893 5.92938212,13.1705191 5.93794503,13.1617284 L6.96281481,12.1095887 L6.96282239,12.1095961 C7.15455824,11.9127586 7.46916051,11.9090122 7.66550623,12.1012283 C7.75441224,12.1882645 7.80756235,12.3055368 7.81447571,12.4299201 C8.13335996,18.1671938 7.72453712,22.6690191 6.58800717,25.935396 C6.80429058,26.2784377 14.8784258,26.4054003 20.3077237,26.4469034 L20.3077237,23.4713706 L19.6967696,23.4713706 C18.8322686,23.4713706 17.9970077,23.1583366 17.345446,22.5901559 C15.8562754,21.2915557 15.7017875,19.031621 17.0003876,17.5424504 L22.9419099,10.7290055 C23.0489418,10.6062666 23.1642294,10.490979 23.2869683,10.3839471 C24.776139,9.08534696 27.0360737,9.23983486 28.3346738,10.7290055 L28.3392584,10.7342629 Z M15.5762084,10.0732339 C16.5443878,10.0732339 17.3292522,9.28640327 17.3292522,8.31579849 C17.3292522,7.34519371 16.5443878,6.55836307 15.5762084,6.55836307 C14.6080291,6.55836307 13.8231646,7.34519371 13.8231646,8.31579849 C13.8231646,9.28640327 14.6080291,10.0732339 15.5762084,10.0732339 Z M15.5762084,16.005217 C16.519061,16.005217 17.283394,15.2389692 17.283394,14.2937546 C17.283394,13.34854 16.519061,12.5822922 15.5762084,12.5822922 C14.6333558,12.5822922 13.8690228,13.34854 13.8690228,14.2937546 C13.8690228,15.2389692 14.6333558,16.005217 15.5762084,16.005217 Z" id="Combined-Shape"></path>
                <path d="M23.113645,20.3308971 L19.2847463,20.3308971 C19.0960713,20.3308971 18.9137779,20.3992159 18.7715764,20.5232198 C18.4465689,20.8066357 18.4128524,21.2998604 18.6962683,21.6248678 L25.2351961,29.1233879 C25.2585555,29.1501753 25.2837167,29.1753365 25.3105042,29.198696 C25.6355116,29.4821119 26.1287362,29.4483953 26.4121522,29.1233879 L32.95108,21.6248678 C33.0750839,21.4826662 33.1434027,21.3003728 33.1434027,21.1116978 C33.1434027,20.6804735 32.7938263,20.3308971 32.362602,20.3308971 L28.5337033,20.3308971 L28.5337033,12.4244599 C28.5337033,11.9932355 28.1841269,11.6436591 27.7529026,11.6436591 L23.8944457,11.6436591 C23.4632214,11.6436591 23.113645,11.9932355 23.113645,12.4244599 L23.113645,20.3308971 Z" id="Combined-Shape-Copy-4" transform="translate(25.823669, 20.517345) scale(1, -1) translate(-25.823669, -20.517345) "></path>
            </g>
        </g>
    </g>
</svg>