<?xml version="1.0" encoding="UTF-8"?>
<svg width="40px" height="40px" viewBox="0 0 40 40" version="1.1" xmlns="http://www.w3.org/2000/svg" xmlns:xlink="http://www.w3.org/1999/xlink">
    <!-- Generator: Sketch 46.1 (44463) - http://www.bohemiancoding.com/sketch -->
    <title>icon-effect-electro</title>
    <desc>Created with Sketch.</desc>
    <defs></defs>
    <g id="Page-1" stroke="none" stroke-width="1" fill="none" fill-rule="evenodd">
        <g id="Artboard" transform="translate(-80.000000, -118.000000)" fill="#FEF468">
            <path d="M104.396617,134.793036 L104.396617,123.464395 C104.396617,123.33181 104.34668,123.204088 104.256749,123.106664 C104.05918,122.89263 103.725509,122.879283 103.511476,123.076853 L85.0213062,140.144702 C84.9131439,140.244544 84.8516281,140.385045 84.8516281,140.532244 C84.8516281,140.823524 85.0877574,141.059654 85.3790376,141.059654 L96.5633443,141.059654 L96.5633443,152.388294 C96.5633443,152.52088 96.6132814,152.648601 96.7032115,152.746025 C96.900781,152.960059 97.2344514,152.973406 97.4484852,152.775836 L115.938655,135.707988 C116.046817,135.608145 116.108333,135.467644 116.108333,135.320445 C116.108333,135.029165 115.872204,134.793036 115.580923,134.793036 L104.396617,134.793036 Z" id="Combined-Shape"></path>
        </g>
    </g>
</svg>