<?xml version="1.0" encoding="UTF-8"?>
<svg width="40px" height="40px" viewBox="0 0 40 40" version="1.1" xmlns="http://www.w3.org/2000/svg" xmlns:xlink="http://www.w3.org/1999/xlink">
    <!-- Generator: Sketch 46.1 (44463) - http://www.bohemiancoding.com/sketch -->
    <title>icon-effect-chilly</title>
    <desc>Created with Sketch.</desc>
    <defs></defs>
    <g id="Page-1" stroke="none" stroke-width="1" fill="none" fill-rule="evenodd">
        <g id="Artboard" transform="translate(-120.000000, -118.000000)">
            <g id="Group" transform="translate(124.123228, 121.000000)">
                <path d="M14.9186554,23.0906613 C11.4905864,23.0906613 8.71158747,20.3116623 8.71158747,16.8835934 C8.71158747,13.4555244 11.4905864,10.6765255 14.9186554,10.6765255 C18.3467243,10.6765255 21.1257233,13.4555244 21.1257233,16.8835934 C21.1257233,20.3116623 18.3467243,23.0906613 14.9186554,23.0906613 Z M14.4392599,8.07565524 C12.2647713,8.07565524 10.502,6.31288391 10.502,4.13839528 C10.502,1.96390665 12.2647713,0.201135326 14.4392599,0.201135326 C16.6137486,0.201135326 18.3765199,1.96390665 18.3765199,4.13839528 C18.3765199,6.31288391 16.6137486,8.07565524 14.4392599,8.07565524 Z M14.4392599,33.8518203 C12.2647713,33.8518203 10.502,32.089049 10.502,29.9145604 C10.502,27.7400717 12.2647713,25.9773004 14.4392599,25.9773004 C16.6137486,25.9773004 18.3765199,27.7400717 18.3765199,29.9145604 C18.3765199,32.089049 16.6137486,33.8518203 14.4392599,33.8518203 Z M4.61260755,27.47712 C2.43811892,27.47712 0.675347592,25.7143487 0.675347592,23.5398601 C0.675347592,21.3653714 2.43811892,19.6026001 4.61260755,19.6026001 C6.78709618,19.6026001 8.5498675,21.3653714 8.5498675,23.5398601 C8.5498675,25.7143487 6.78709618,27.47712 4.61260755,27.47712 Z M26.0370255,14.6137854 C23.8625369,14.6137854 22.0997655,12.8510141 22.0997655,10.6765255 C22.0997655,8.50203686 23.8625369,6.73926553 26.0370255,6.73926553 C28.2115141,6.73926553 29.9742854,8.50203686 29.9742854,10.6765255 C29.9742854,12.8510141 28.2115141,14.6137854 26.0370255,14.6137854 Z M4.16000466,14.9135626 C1.98551603,14.9135626 0.222744708,13.1507913 0.222744708,10.9763026 C0.222744708,8.801814 1.98551603,7.03904268 4.16000466,7.03904268 C6.33449329,7.03904268 8.09726462,8.801814 8.09726462,10.9763026 C8.09726462,13.1507913 6.33449329,14.9135626 4.16000466,14.9135626 Z" id="Combined-Shape" fill="#FD6C5F"></path>
                <path d="M24.0662251,25.4256311 L20.3649564,25.4256311 C20.1825706,25.4256311 20.0063536,25.4916726 19.8688921,25.611543 C19.5547183,25.8855118 19.5221256,26.3622956 19.7960943,26.6764694 L26.1170579,33.9250389 C26.1396386,33.9509334 26.1639611,33.9752559 26.1898557,33.9978366 C26.5040295,34.2718054 26.9808133,34.2392127 27.254782,33.9250389 L33.5757456,26.6764694 C33.695616,26.5390079 33.7616576,26.3627909 33.7616576,26.1804051 C33.7616576,25.7635549 33.4237337,25.4256311 33.0068835,25.4256311 L29.3056148,25.4256311 L29.3056148,17.7827418 C29.3056148,17.3658916 28.967691,17.0279677 28.5508408,17.0279677 L24.8209991,17.0279677 C24.4041489,17.0279677 24.0662251,17.3658916 24.0662251,17.7827418 L24.0662251,25.4256311 Z" id="Combined-Shape" fill="#FFFFFF"></path>
            </g>
        </g>
    </g>
</svg>