<?xml version="1.0" encoding="UTF-8"?>
<svg width="40px" height="40px" viewBox="0 0 40 40" version="1.1" xmlns="http://www.w3.org/2000/svg" xmlns:xlink="http://www.w3.org/1999/xlink">
    <!-- Generator: Sketch 46.1 (44463) - http://www.bohemiancoding.com/sketch -->
    <title>icon-effect-sneaky</title>
    <desc>Created with Sketch.</desc>
    <defs></defs>
    <g id="Page-1" stroke="none" stroke-width="1" fill="none" fill-rule="evenodd">
        <g id="Artboard" transform="translate(-40.000000, -118.000000)" fill-rule="nonzero" fill="#B84592">
            <path d="M55.0679331,135.343141 L51.934592,131.834378 L49.5768173,135.123144 C48.7282159,136.306824 47.0807261,136.578459 45.8970459,135.729858 C44.7133656,134.881257 44.4417305,133.233767 45.2903319,132.050087 L49.5659254,126.086232 C50.549673,124.714041 52.5515537,124.606892 53.6761523,125.866235 L56.8257095,129.393157 L59.2442793,126.070732 C60.2295951,124.717189 62.2104369,124.612513 63.3329204,125.854671 L66.6977517,129.578246 L69.783594,125.9219 C70.7229535,124.808874 72.3867407,124.668089 73.4997668,125.607448 C74.6127929,126.546808 74.7535775,128.210595 73.8142181,129.323621 L68.7809101,135.287476 C67.7505854,136.508285 65.8800519,136.539946 64.809002,135.354705 L61.5970856,131.800348 L59.1669623,135.138644 C58.1779031,136.49733 56.1873118,136.596638 55.0679331,135.343141 Z M55.0679331,150.117489 L51.934592,146.608726 L49.5768173,149.897492 C48.7282159,151.081172 47.0807261,151.352807 45.8970459,150.504206 C44.7133656,149.655604 44.4417305,148.008114 45.2903319,146.824434 L49.5659254,140.860579 C50.549673,139.488389 52.5515537,139.38124 53.6761523,140.640582 L56.8257095,144.167504 L59.2442793,140.845079 C60.2295951,139.491536 62.2104369,139.38686 63.3329204,140.629018 L66.6977517,144.352593 L69.783594,140.696247 C70.7229535,139.583221 72.3867407,139.442437 73.4997668,140.381796 C74.6127929,141.321155 74.7535775,142.984943 73.8142181,144.097969 L68.7809101,150.061824 C67.7505854,151.282632 65.8800519,151.314293 64.809002,150.129053 L61.5970856,146.574696 L59.1669623,149.912992 C58.1779031,151.271677 56.1873118,151.370986 55.0679331,150.117489 Z" id="Combined-Shape"></path>
        </g>
    </g>
</svg>