<?xml version="1.0" encoding="UTF-8"?>
<svg width="40px" height="40px" viewBox="0 0 40 40" version="1.1" xmlns="http://www.w3.org/2000/svg" xmlns:xlink="http://www.w3.org/1999/xlink">
    <!-- Generator: Sketch 46.1 (44463) - http://www.bohemiancoding.com/sketch -->
    <title>icon-extraSta5</title>
    <desc>Created with Sketch.</desc>
    <defs></defs>
    <g id="Page-1" stroke="none" stroke-width="1" fill="none" fill-rule="evenodd">
        <g id="Artboard" transform="translate(-200.000000, -198.000000)" fill="#FEF468">
            <path d="M235.409339,214.197344 C235.723842,215.467502 235.890721,216.795892 235.890721,218.163259 C235.890721,223.235975 233.593972,227.772257 229.983634,230.788944 L224.632842,223.555466 C226.047452,222.194191 226.927661,220.281518 226.927661,218.163259 C226.927661,217.739451 226.892427,217.323873 226.824728,216.919294 L235.409339,214.197344 L235.409339,214.197344 Z M234.729979,212.082591 L226.134959,214.807841 C225.033597,212.616312 222.887037,211.040571 220.349553,210.734901 L220.574025,201.756022 C227.018452,202.192831 232.444303,206.34222 234.729979,212.082591 L234.729979,212.082591 Z M228.187149,232.095318 C225.654761,233.687636 222.657614,234.608619 219.445361,234.608619 C216.179428,234.608619 213.135853,233.656598 210.57701,232.014931 L215.711057,224.648689 C216.810044,225.282855 218.0853,225.645701 219.445302,225.645701 C220.660209,225.645701 221.807487,225.356148 222.821894,224.842287 L228.187149,232.095318 L228.187149,232.095318 Z M208.791805,230.691722 C205.247928,227.675252 203,223.181771 203,218.163259 C203,216.800084 203.165858,215.475647 203.478494,214.209028 L212.036274,217.11156 C211.987938,217.455185 211.962943,217.806303 211.962943,218.163259 C211.962943,220.133752 212.724632,221.926342 213.96964,223.262654 L208.791805,230.691722 L208.791805,230.691722 Z M204.156406,212.093494 C206.44374,206.33693 211.888126,202.177864 218.35221,201.753653 L218.126133,210.796734 C215.70533,211.22734 213.687215,212.82205 212.671199,214.981446 L204.156406,212.093494 L204.156406,212.093494 Z" id="Combined-Shape-Copy-9"></path>
        </g>
    </g>
</svg>