<?xml version="1.0" encoding="UTF-8"?>
<svg width="40px" height="40px" viewBox="0 0 40 40" version="1.1" xmlns="http://www.w3.org/2000/svg" xmlns:xlink="http://www.w3.org/1999/xlink">
    <!-- Generator: Sketch 46.1 (44463) - http://www.bohemiancoding.com/sketch -->
    <title>icon-star</title>
    <desc>Created with Sketch.</desc>
    <defs></defs>
    <g id="Page-1" stroke="none" stroke-width="1" fill="none" fill-rule="evenodd">
        <g id="Artboard" transform="translate(-280.000000, 0.000000)" fill="#FFFFFF">
            <path d="M299.514107,30.4999302 L290.965183,34.9943654 C290.518346,35.2292813 289.965677,35.0574856 289.730761,34.610649 C289.637216,34.4327163 289.604936,34.2289085 289.638918,34.0307776 L291.271617,24.5114111 C291.322474,24.2148932 291.224168,23.9123369 291.008735,23.7023417 L284.09251,16.960689 C283.731012,16.6083151 283.723615,16.0296072 284.075989,15.6681087 C284.216306,15.5241581 284.400164,15.430478 284.599098,15.4015711 L294.157086,14.0127142 C294.454807,13.9694529 294.712176,13.7824628 294.845321,13.5126819 L299.119783,4.85167615 C299.343201,4.39898117 299.891299,4.21311572 300.343994,4.43653405 C300.52426,4.5255004 300.67017,4.67141064 300.759137,4.85167615 L305.033598,13.5126819 C305.166743,13.7824628 305.424113,13.9694529 305.721834,14.0127142 L315.279821,15.4015711 C315.7794,15.4741641 316.12554,15.9380008 316.052947,16.4375794 C316.02404,16.6365142 315.93036,16.8203718 315.786409,16.960689 L308.870185,23.7023417 C308.654752,23.9123369 308.556445,24.2148932 308.607302,24.5114111 L310.240001,34.0307776 C310.325339,34.5283375 309.991168,35.0008698 309.493608,35.086208 C309.295477,35.1201901 309.091669,35.0879101 308.913736,34.9943654 L300.364813,30.4999302 C300.098523,30.3599335 299.780396,30.3599335 299.514107,30.4999302 Z" id="icon_star"></path>
        </g>
    </g>
</svg>