<?xml version="1.0" encoding="UTF-8"?>
<svg width="40px" height="40px" viewBox="0 0 40 40" version="1.1" xmlns="http://www.w3.org/2000/svg" xmlns:xlink="http://www.w3.org/1999/xlink">
    <!-- Generator: Sketch 46.1 (44463) - http://www.bohemiancoding.com/sketch -->
    <title>icon-effect-hasty</title>
    <desc>Created with Sketch.</desc>
    <defs></defs>
    <g id="Page-1" stroke="none" stroke-width="1" fill="none" fill-rule="evenodd">
        <g id="Artboard" transform="translate(0.000000, -118.000000)" fill="#3369E7">
            <path d="M2.51266859,150.087278 L11.151076,134.042852 C11.3528832,133.668028 11.820335,133.527771 12.1951588,133.729578 C12.2752642,133.772707 12.3471016,133.829677 12.4073454,133.897851 L17.5252966,139.689489 C17.8071856,140.008484 18.2942981,140.038564 18.6132928,139.756675 C18.6575283,139.717585 18.6971268,139.673543 18.7313096,139.625414 L22.143257,134.821474 C22.3658686,134.508042 22.323488,134.078495 22.0439163,133.814611 L18.1698374,130.157911 C17.8602633,129.865707 17.8461816,129.37787 18.1383852,129.068296 C18.2285139,128.972809 18.3415414,128.90193 18.4667478,128.86238 L34.7260609,123.726392 C35.1319889,123.598167 35.565005,123.82329 35.6932294,124.229218 C35.7169541,124.304325 35.7290267,124.382625 35.7290267,124.461389 L35.7290267,143.874868 C35.7290267,144.300567 35.3839301,144.645663 34.9582318,144.645663 C34.7613071,144.645663 34.5718505,144.570292 34.4287424,144.435016 L30.8248634,141.028389 C30.5155022,140.73596 30.0276549,140.749686 29.735226,141.059048 C29.7100821,141.085647 29.6868648,141.114005 29.6657504,141.143904 L20.5986448,153.983387 C20.3530805,154.331119 19.8721192,154.413942 19.5243877,154.168378 C19.4603453,154.123151 19.4035777,154.068419 19.3560445,154.00607 L12.1795105,144.59264 C11.9214189,144.254102 11.4377553,144.188888 11.0992176,144.44698 C11.0836702,144.458833 11.0685794,144.471273 11.0539779,144.484273 L3.70390302,151.028365 C3.38596193,151.311442 2.89874065,151.283179 2.61566383,150.965238 C2.40025718,150.723301 2.35910386,150.372499 2.51266859,150.087278 Z" id="Path-2"></path>
        </g>
    </g>
</svg>