<?xml version="1.0" encoding="UTF-8"?>
<svg width="40px" height="40px" viewBox="0 0 40 40" version="1.1" xmlns="http://www.w3.org/2000/svg" xmlns:xlink="http://www.w3.org/1999/xlink">
    <!-- Generator: Sketch 46.1 (44463) - http://www.bohemiancoding.com/sketch -->
    <title>icon-effect-hasty</title>
    <desc>Created with Sketch.</desc>
    <defs></defs>
    <g id="Page-1" stroke="none" stroke-width="1" fill="none" fill-rule="evenodd">
        <g id="Artboard" transform="translate(0.000000, -118.000000)" fill="#3369E7">
            <path d="M4.12234425,149.009703 L11.9211829,134.524639 C12.1033764,134.186244 12.5253965,134.059618 12.8637911,134.241811 C12.936111,134.280749 13.0009665,134.332182 13.0553553,134.39373 L17.6758916,139.622478 C17.9303838,139.910469 18.3701537,139.937626 18.6581452,139.683133 C18.6980815,139.647843 18.7338314,139.608081 18.7646919,139.56463 L21.8450314,135.227586 C22.0460074,134.944617 22.0077457,134.556817 21.7553456,134.31858 L18.2577893,131.017275 C17.9783028,130.753471 17.9655898,130.313047 18.229394,130.033561 C18.3107631,129.947354 18.4128054,129.883364 18.525843,129.847657 L33.2049099,125.210837 C33.5713856,125.095075 33.9623167,125.298318 34.078079,125.664794 C34.0994979,125.732601 34.1103972,125.803291 34.1103972,125.8744 L34.1103972,143.401079 C34.1103972,143.785403 33.7988406,144.09696 33.414516,144.09696 C33.2367305,144.09696 33.0656872,144.028914 32.9364878,143.906786 L29.6828706,140.831249 C29.4035762,140.567242 28.963143,140.579634 28.6991353,140.858928 C28.6764351,140.882943 28.6554743,140.908544 28.636412,140.935537 L20.4505404,152.527149 C20.2288426,152.841084 19.794626,152.915857 19.4806906,152.69416 C19.4228725,152.653329 19.3716222,152.603916 19.3287087,152.547627 L12.8496636,144.04909 C12.616656,143.743455 12.1799998,143.684579 11.8743647,143.917586 C11.8603284,143.928287 11.8467042,143.939518 11.8335218,143.951255 L5.19780235,149.859326 C4.91076202,150.11489 4.47089388,150.089374 4.21532936,149.802334 C4.02085813,149.583911 3.98370452,149.267203 4.12234425,149.009703 Z" id="Path-2"></path>
        </g>
    </g>
</svg>