<?xml version="1.0" encoding="UTF-8"?>
<svg width="40px" height="40px" viewBox="0 0 40 40" version="1.1" xmlns="http://www.w3.org/2000/svg" xmlns:xlink="http://www.w3.org/1999/xlink">
    <!-- Generator: Sketch 46.1 (44463) - http://www.bohemiancoding.com/sketch -->
    <title>icon-effect-electro</title>
    <desc>Created with Sketch.</desc>
    <defs></defs>
    <g id="Page-1" stroke="none" stroke-width="1" fill="none" fill-rule="evenodd">
        <g id="Artboard" transform="translate(-80.000000, -118.000000)" fill="#FEF468">
            <path d="M104.738156,134.519804 L104.738156,122.203282 C104.738156,122.059135 104.683864,121.920276 104.586092,121.814356 C104.371294,121.581658 104.008527,121.567147 103.775829,121.781946 L83.6732768,140.338147 C83.5556825,140.446696 83.4888023,140.599449 83.4888023,140.759484 C83.4888023,141.076165 83.7455226,141.332885 84.0622031,141.332885 L96.2218052,141.332885 L96.2218052,153.649407 C96.2218052,153.793554 96.2760969,153.932413 96.3738691,154.038333 C96.5886672,154.271031 96.9514344,154.285542 97.1841323,154.070744 L117.286684,135.514542 C117.404278,135.405994 117.471159,135.25324 117.471159,135.093205 C117.471159,134.776525 117.214438,134.519804 116.897758,134.519804 L104.738156,134.519804 Z" id="Combined-Shape"></path>
        </g>
    </g>
</svg>