<?xml version="1.0" encoding="UTF-8"?>
<svg width="40px" height="40px" viewBox="0 0 40 40" version="1.1" xmlns="http://www.w3.org/2000/svg" xmlns:xlink="http://www.w3.org/1999/xlink">
    <!-- Generator: Sketch 46.1 (44463) - http://www.bohemiancoding.com/sketch -->
    <title>icon-food</title>
    <desc>Created with Sketch.</desc>
    <defs></defs>
    <g id="Page-1" stroke="none" stroke-width="1" fill="none" fill-rule="evenodd">
        <g id="Artboard" transform="translate(-80.000000, 0.000000)" fill="#FFFFFF">
            <path d="M94.9929161,9.79356244 C95.2167926,6.53711099 97.4901873,3.97802734 100.26167,3.97802734 C103.033153,3.97802734 105.306548,6.53711099 105.530424,9.79356244 L109.249315,9.79356244 C111.293208,9.79356244 112.95011,11.4504648 112.95011,13.4943575 L87.5732301,13.4943575 C87.5732301,11.4504648 89.2301325,9.79356244 91.2740251,9.79356244 L94.9929161,9.79356244 L94.9929161,9.79356244 Z M102.872201,9.79356244 C102.68343,8.29330594 101.704847,7.1501374 100.526013,7.1501374 C99.3471789,7.1501374 98.3685959,8.29330594 98.1798244,9.79356244 L102.872201,9.79356244 Z M112.95011,19.8385776 L112.95011,31.4696478 C112.95011,32.9295711 111.766609,34.1130729 110.306685,34.1130729 L90.7453401,34.1130729 C89.2854168,34.1130729 88.1019151,32.9295711 88.1019151,31.4696478 L88.1019151,19.8385776 L84.40112,19.8385776 C83.8171507,19.8385776 83.34375,19.3651769 83.34375,18.7812076 L83.34375,17.1951526 C83.34375,16.6111832 83.8171507,16.1377825 84.40112,16.1377825 L116.122221,16.1377825 C116.70619,16.1377825 117.179591,16.6111832 117.179591,17.1951526 L117.179591,18.7812076 C117.179591,19.3651769 116.70619,19.8385776 116.122221,19.8385776 L112.95011,19.8385776 Z" id="icon_food"></path>
        </g>
    </g>
</svg>