<?xml version="1.0" encoding="UTF-8"?>
<svg width="40px" height="40px" viewBox="0 0 40 40" version="1.1" xmlns="http://www.w3.org/2000/svg" xmlns:xlink="http://www.w3.org/1999/xlink">
    <!-- Generator: Sketch 46.1 (44463) - http://www.bohemiancoding.com/sketch -->
    <title>icon-hp20</title>
    <desc>Created with Sketch.</desc>
    <defs></defs>
    <g id="Page-1" stroke="none" stroke-width="1" fill="none" fill-rule="evenodd">
        <g id="Artboard" transform="translate(0.000000, -40.000000)">
            <g id="hp_5+" transform="translate(4.000000, 44.500000)">
                <path d="M15.8390152,4.04265632 C14.5908707,2.53404709 12.4405368,0.865675403 9.03215506,0.865675403 C3.23047872,0.865675403 0.323863636,6.27335197 0.323863636,11.3236389 C0.323863636,19.6721403 13.3691351,28.5291579 14.9695064,29.6282305 C15.2316135,29.8079218 15.5353143,29.8979335 15.8390152,29.8979335 C16.142716,29.8979335 16.4464168,29.8079218 16.7085239,29.6282305 C18.3088952,28.5291579 31.3541667,19.6721403 31.3541667,11.3236389 C31.3541667,6.27335197 28.4468914,0.865675403 22.6448849,0.865675403 C19.2378237,0.865675403 17.0871596,2.53404709 15.8390152,4.04265632 Z" id="Path" fill="#B51949"></path>
                <path d="M21.7479521,15.4046243 C23.083334,15.4046243 24.2681476,15.6343039 25.2987229,16.0971278 C26.3443347,16.5667045 27.1601667,17.2312573 27.7355997,18.0882491 C28.3131444,18.9483858 28.6028169,19.9223918 28.6028169,20.9974847 C28.6028169,22.2264964 28.3047591,23.3200882 27.7072611,24.2671423 C27.1100563,25.2137317 26.2669149,25.9456105 25.1879995,26.4579304 C24.1226851,26.9637919 22.8942593,27.2149413 21.5072375,27.2149413 C20.3955356,27.2149413 19.2420334,27.0265669 18.0476007,26.6514543 C16.8538061,26.276542 15.7935878,25.7705034 14.868545,25.1326715 L14.5091852,24.8848871 L16.2556892,21.4318079 L16.7347442,21.803655 C17.4183239,22.3342561 18.1454543,22.7462219 18.9172744,23.0407346 C19.679744,23.3316794 20.4378942,23.4763276 21.1943086,23.4763276 C22.1483564,23.4763276 22.8781006,23.2637695 23.3996791,22.8514039 C23.8948616,22.4599075 24.136527,21.9368326 24.136527,21.237714 C24.136527,20.5765423 23.9043026,20.0947333 23.4256001,19.7427163 C22.9141495,19.3666178 22.1079766,19.1672608 21.0017369,19.1672608 C20.4320842,19.1672608 19.6764313,19.1871063 18.7360733,19.2268717 C17.797026,19.2665816 17.0745468,19.3101599 16.5710228,19.3572701 L16.0244458,19.4084084 L16.0244458,9.25475507 L27.8566018,9.25475507 L27.8566018,13.0654375 L20.0093065,13.0654375 L20.0093065,15.4046243 L21.7479521,15.4046243 Z" id="5" fill="#FFFFFF" fill-rule="nonzero"></path>
            </g>
        </g>
    </g>
</svg>