<?xml version="1.0" encoding="UTF-8"?>
<svg width="40px" height="40px" viewBox="0 0 40 40" version="1.1" xmlns="http://www.w3.org/2000/svg" xmlns:xlink="http://www.w3.org/1999/xlink">
    <!-- Generator: Sketch 46.1 (44463) - http://www.bohemiancoding.com/sketch -->
    <title>icon-effect-mighty</title>
    <desc>Created with Sketch.</desc>
    <defs></defs>
    <g id="Page-1" stroke="none" stroke-width="1" fill="none" fill-rule="evenodd">
        <g id="Artboard" transform="translate(-160.000000, -79.000000)" fill="#FFFFFF">
            <g id="Group-2" transform="translate(164.000000, 84.000000)">
                <path d="M8.39722446,23.6039108 C8.31567862,23.7270815 8.22068381,23.8439642 8.11224005,23.9524849 L4.31237146,27.7550483 C3.43795084,28.6300891 2.02023491,28.6300891 1.1458143,27.7550483 L0.829158584,27.4381681 C-0.0452620306,26.5631273 -0.0452620306,25.1444059 0.829158584,24.2693652 L4.62902717,20.4668017 C4.73747094,20.358281 4.85427082,20.2632188 4.9773542,20.1816152 L2.09578145,17.2979988 C1.39624496,16.5979662 1.39624496,15.4629891 2.09578145,14.7629565 C2.79531794,14.0629239 3.92949068,14.0629239 4.62902717,14.7629565 L13.8120429,23.9524849 C14.5115794,24.6525175 14.5115794,25.7874946 13.8120429,26.4875272 C13.1125064,27.1875598 11.9783337,27.1875598 11.2787972,26.4875272 L8.39722446,23.6039108 Z M10.6184583,18.8553536 C10.6854833,18.8233126 10.7482983,18.7795148 10.8038136,18.7239601 L17.7702394,11.7525937 C18.0325656,11.4900815 18.0325656,11.0644651 17.7702394,10.8019528 C17.5079132,10.5394406 17.0825984,10.5394406 16.8202722,10.8019528 L9.85384649,17.7733192 C9.79833113,17.8288739 9.75456433,17.8917335 9.7225461,17.958806 L6.84561719,15.0798367 L19.4991672,1.14360251 L28.0989675,0.485704565 L27.4415358,9.09160385 L13.4953872,21.7343228 L10.6184583,18.8553536 L10.6184583,18.8553536 Z" id="icon_weapon-copy"></path>
                <path d="M23.5716055,22.7044979 L19.8703368,22.7044979 C19.687951,22.7044979 19.511734,22.7705394 19.3742725,22.8904099 C19.0600987,23.1643786 19.027506,23.6411624 19.3014747,23.9553363 L25.6224383,31.2039057 C25.6450191,31.2298002 25.6693416,31.2541227 25.6952361,31.2767035 C26.0094099,31.5506722 26.4861937,31.5180796 26.7601625,31.2039057 L33.081126,23.9553363 C33.2009965,23.8178747 33.267038,23.6416578 33.267038,23.459272 C33.267038,23.0424218 32.9291141,22.7044979 32.5122639,22.7044979 L28.8109953,22.7044979 L28.8109953,15.0616086 C28.8109953,14.6447584 28.4730714,14.3068346 28.0562212,14.3068346 L24.3263796,14.3068346 C23.9095294,14.3068346 23.5716055,14.6447584 23.5716055,15.0616086 L23.5716055,22.7044979 Z" id="Combined-Shape" transform="translate(26.191295, 22.884730) scale(1, -1) translate(-26.191295, -22.884730) "></path>
            </g>
        </g>
    </g>
</svg>