<?xml version="1.0" encoding="UTF-8"?>
<svg width="40px" height="40px" viewBox="0 0 40 40" version="1.1" xmlns="http://www.w3.org/2000/svg" xmlns:xlink="http://www.w3.org/1999/xlink">
    <!-- Generator: Sketch 46.1 (44463) - http://www.bohemiancoding.com/sketch -->
    <title>icon-extraSta4</title>
    <desc>Created with Sketch.</desc>
    <defs></defs>
    <g id="Page-1" stroke="none" stroke-width="1" fill="none" fill-rule="evenodd">
        <g id="Artboard" transform="translate(-160.000000, -198.000000)">
            <g id="Group-10-Copy" transform="translate(179.500000, 218.000000) scale(-1, 1) translate(-179.500000, -218.000000) translate(163.000000, 201.000000)">
                <path d="M32.409339,13.1973444 C32.7238419,14.467502 32.8907212,15.7958921 32.8907212,17.1632589 C32.8907212,22.2359754 30.593972,26.7722574 26.9836342,29.7889443 L21.6328421,22.5554661 C23.0474521,21.1941912 23.9276612,19.2815181 23.9276612,17.1632589 C23.9276612,16.7394513 23.892427,16.3238732 23.824728,15.9192942 L32.409339,13.1973444 L32.409339,13.1973444 Z M31.7299786,11.0825908 L23.1349586,13.8078411 C22.0335972,11.6163122 19.8870366,10.040571 17.3495534,9.73490138 L17.5740254,0.756021935 C24.018452,1.19283105 29.4443027,5.34222028 31.7299786,11.0825908 L31.7299786,11.0825908 Z M25.1871493,31.095318 C22.6547606,32.6876356 19.6576143,33.6086195 16.4453606,33.6086195 C13.1794284,33.6086195 10.1358527,32.6565981 7.57700956,31.0149313 L12.7110569,23.6486895 C13.8100438,24.2828555 15.0852999,24.6457006 16.4453021,24.6457006 C17.6602085,24.6457006 18.807487,24.3561479 19.8218935,23.8422871 L25.1871493,31.095318 L25.1871493,31.095318 Z M5.79180463,29.6917217 C2.24792814,26.6752523 0,22.1817715 0,17.1632589 C0,15.8000841 0.165857628,14.4756475 0.478493812,13.2090281 L9.03627395,16.1115598 C8.9879383,16.4551849 8.96294308,16.8063029 8.96294308,17.1632589 C8.96294308,19.1337524 9.72463205,20.9263419 10.9696396,22.2626541 L5.79180463,29.6917217 L5.79180463,29.6917217 Z" id="Combined-Shape-Copy-7" fill="#FEF468"></path>
                <path d="M1.15640582,11.0934939 C3.44373985,5.33692953 8.88812635,1.1778642 15.3522102,0.753653008 L15.1261332,9.79673425 C12.7053305,10.22734 10.6872146,11.8220504 9.67119858,13.9814456 L1.15640582,11.0934939 L1.15640582,11.0934939 Z" id="Path" fill="#182359"></path>
            </g>
        </g>
    </g>
</svg>