<?xml version="1.0" encoding="UTF-8"?>
<svg width="40px" height="40px" viewBox="0 0 40 40" version="1.1" xmlns="http://www.w3.org/2000/svg" xmlns:xlink="http://www.w3.org/1999/xlink">
    <!-- Generator: Sketch 46.1 (44463) - http://www.bohemiancoding.com/sketch -->
    <title>icon-sta5</title>
    <desc>Created with Sketch.</desc>
    <defs></defs>
    <g id="Page-1" stroke="none" stroke-width="1" fill="none" fill-rule="evenodd">
        <g id="Artboard" transform="translate(-160.000000, -158.000000)" fill="#2DDE98">
            <path d="M195.409339,174.197344 C195.723842,175.467502 195.890721,176.795892 195.890721,178.163259 C195.890721,183.235975 193.593972,187.772257 189.983634,190.788944 L184.632842,183.555466 C186.047452,182.194191 186.927661,180.281518 186.927661,178.163259 C186.927661,177.739451 186.892427,177.323873 186.824728,176.919294 L195.409339,174.197344 L195.409339,174.197344 Z M194.729979,172.082591 L186.134959,174.807841 C185.033597,172.616312 182.887037,171.040571 180.349553,170.734901 L180.574025,161.756022 C187.018452,162.192831 192.444303,166.34222 194.729979,172.082591 L194.729979,172.082591 Z M188.187149,192.095318 C185.654761,193.687636 182.657614,194.608619 179.445361,194.608619 C176.179428,194.608619 173.135853,193.656598 170.57701,192.014931 L175.711057,184.648689 C176.810044,185.282855 178.0853,185.645701 179.445302,185.645701 C180.660209,185.645701 181.807487,185.356148 182.821894,184.842287 L188.187149,192.095318 L188.187149,192.095318 Z M168.791805,190.691722 C165.247928,187.675252 163,183.181771 163,178.163259 C163,176.800084 163.165858,175.475647 163.478494,174.209028 L172.036274,177.11156 C171.987938,177.455185 171.962943,177.806303 171.962943,178.163259 C171.962943,180.133752 172.724632,181.926342 173.96964,183.262654 L168.791805,190.691722 L168.791805,190.691722 Z M164.156406,172.093494 C166.44374,166.33693 171.888126,162.177864 178.35221,161.753653 L178.126133,170.796734 C175.70533,171.22734 173.687215,172.82205 172.671199,174.981446 L164.156406,172.093494 L164.156406,172.093494 Z" id="Combined-Shape-Copy-8"></path>
        </g>
    </g>
</svg>