<?xml version="1.0" encoding="UTF-8"?>
<svg width="40px" height="40px" viewBox="0 0 40 40" version="1.1" xmlns="http://www.w3.org/2000/svg" xmlns:xlink="http://www.w3.org/1999/xlink">
    <!-- Generator: Sketch 46.1 (44463) - http://www.bohemiancoding.com/sketch -->
    <title>icon-effect-spicy</title>
    <desc>Created with Sketch.</desc>
    <defs></defs>
    <g id="Page-1" stroke="none" stroke-width="1" fill="none" fill-rule="evenodd">
        <g id="Artboard" transform="translate(-160.000000, -118.000000)">
            <g id="Group-4" transform="translate(164.599018, 121.000000)">
                <path d="M27.9677597,13.2814396 L28.6043661,12.9138947 C30.061015,12.0728981 30.5600998,10.2102884 29.7191031,8.75363945 C28.8781065,7.29699054 27.0154968,6.79790577 25.5588478,7.63890241 L18.2583925,11.8538223 L18.2583925,3.42398253 C18.2583925,1.74198925 16.8948675,0.378464284 15.2128742,0.378464284 C13.5308809,0.378464284 12.167356,1.74198925 12.167356,3.42398253 L12.167356,11.8538223 L4.86690058,7.63890241 C3.41025167,6.79790577 1.54764193,7.29699054 0.706645292,8.75363945 C-0.134351349,10.2102884 0.364733426,12.0728981 1.82138234,12.9138947 L9.12183772,17.1288146 L1.82138234,21.3437345 C0.364733426,22.1847311 -0.134351349,24.0473409 0.706645292,25.5039898 C1.54764193,26.9606387 3.41025167,27.4597235 4.86690058,26.6187268 L12.167356,22.403807 L12.167356,30.8336467 C12.167356,32.51564 13.5308809,33.879165 15.2128742,33.879165 C16.8948675,33.879165 18.2583925,32.51564 18.2583925,30.8336467 L18.2583925,27.902906 L17.0696824,26.5397519 C16.2743418,25.3438217 15.5805118,23.9787274 17.0696824,22.6801273 C17.5040569,22.3013401 18.7689076,22.1206265 20.8642345,22.1379866 L20.8642345,15.8746634 C20.8642345,13.8988113 21.9787631,13.2573514 23.9546152,13.2573514 L27.4605581,13.2573514 C27.6327369,13.2573514 27.8020749,13.2654134 27.9677597,13.2814396 Z" id="Combined-Shape" fill="#1DAEFC"></path>
                <path d="M22.9479363,24.0832699 L19.1190376,24.0832699 C18.9303626,24.0832699 18.7480692,24.1515887 18.6058677,24.2755926 C18.2808602,24.5590085 18.2471437,25.0522331 18.5305596,25.3772406 L25.0694874,32.8757607 C25.0928468,32.9025481 25.118008,32.9277093 25.1447955,32.9510687 C25.4698029,33.2344847 25.9630275,33.2007681 26.2464435,32.8757607 L32.7853713,25.3772406 C32.9093752,25.235039 32.977694,25.0527456 32.977694,24.8640706 C32.977694,24.4328463 32.6281176,24.0832699 32.1968932,24.0832699 L28.3679946,24.0832699 L28.3679946,16.1768327 C28.3679946,15.7456083 28.0184182,15.3960319 27.5871939,15.3960319 L23.728737,15.3960319 C23.2975127,15.3960319 22.9479363,15.7456083 22.9479363,16.1768327 L22.9479363,24.0832699 Z" id="Combined-Shape-Copy-2" fill="#FFFFFF"></path>
            </g>
        </g>
    </g>
</svg>