<?xml version="1.0" encoding="UTF-8"?>
<svg width="40px" height="40px" viewBox="0 0 40 40" version="1.1" xmlns="http://www.w3.org/2000/svg" xmlns:xlink="http://www.w3.org/1999/xlink">
    <!-- Generator: Sketch 46.1 (44463) - http://www.bohemiancoding.com/sketch -->
    <title>icon-shield</title>
    <desc>Created with Sketch.</desc>
    <defs></defs>
    <g id="Page-1" stroke="none" stroke-width="1" fill="none" fill-rule="evenodd">
        <g id="Artboard" transform="translate(-160.000000, 0.000000)" fill="#FFFFFF">
            <path d="M168.92283,3.48046875 L192.275206,3.48046875 C193.135017,3.48046875 193.832031,4.17935997 193.832031,5.04148598 L193.832031,23.2533537 C193.832031,29.3236375 183.533269,36.6927365 181.201072,36.6927365 C178.868875,36.6927365 167.366005,29.1346081 167.366005,23.2533537 L167.366005,5.04148598 C167.366005,4.17935997 168.06302,3.48046875 168.92283,3.48046875 Z M172.916649,8.62320113 C172.343442,8.62320113 171.878765,9.08912861 171.878765,9.66387929 L171.878765,22.2897777 C171.878765,26.3547694 179.458893,31.578779 180.995758,31.578779 C182.532622,31.578779 189.319271,26.4854223 189.319271,22.2897777 L189.319271,9.66387929 C189.319271,9.08912861 188.854595,8.62320113 188.281388,8.62320113 L172.916649,8.62320113 Z M174.811802,11.0014329 L186.386234,11.0014329 C186.959442,11.0014329 187.424118,11.4673604 187.424118,12.042111 L187.424118,21.7032156 C187.424118,24.9886673 182.112396,28.9770836 180.909535,28.9770836 C179.706674,28.9770836 173.773919,24.8863579 173.773919,21.7032156 L173.773919,12.042111 C173.773919,11.4673604 174.238595,11.0014329 174.811802,11.0014329 Z" id="icon_shield"></path>
        </g>
    </g>
</svg>