<?xml version="1.0" encoding="UTF-8"?>
<svg width="40px" height="40px" viewBox="0 0 40 40" version="1.1" xmlns="http://www.w3.org/2000/svg" xmlns:xlink="http://www.w3.org/1999/xlink">
    <!-- Generator: Sketch 46.1 (44463) - http://www.bohemiancoding.com/sketch -->
    <title>icon-bow</title>
    <desc>Created with Sketch.</desc>
    <defs></defs>
    <g id="Page-1" stroke="none" stroke-width="1" fill="none" fill-rule="evenodd">
        <g id="Artboard" fill="#FFFFFF">
            <path d="M11.667433,27.0088464 L29.1527421,9.6536795 L26.4140512,6.93537249 L37.9238281,3 L33.9589452,14.4241103 L31.1553267,11.641359 L13.7470724,28.9200447 L13.7470724,33.6105668 L10.91499,33.6105668 L10.91499,29.8198497 L7.09584731,29.8198497 L7.09584731,27.0088464 L11.667433,27.0088464 L11.667433,27.0088464 Z M25.7766133,10.6194646 L21.67719,14.6883761 C18.2104865,12.7193006 13.8756279,12.8196167 10.4973821,14.9893244 L15.9356836,20.3871488 L13.532582,22.7723642 L2.31810806,11.641359 C1.65450989,10.9827 1.65450989,9.91480265 2.31810806,9.2561436 C2.98170623,8.59748455 4.05761144,8.59748455 4.72120962,9.2561436 L6.43286318,10.9550574 C12.1212092,6.67805313 19.9749939,6.56618885 25.7766133,10.6194646 L25.7766133,10.6194646 Z M30.1053954,15.0686912 C33.8562289,20.7753352 33.6356549,28.3020158 29.4436732,33.7945993 L30.7548098,35.0959772 C31.418408,35.7546362 31.418408,36.8225335 30.7548098,37.4811926 C30.0912117,38.1398516 29.0153064,38.1398516 28.3517083,37.4811926 L17.9382682,27.1452591 L20.3413697,24.7600437 L25.3791542,29.7603323 C27.4568176,26.5733756 27.6510658,22.5286891 25.9618988,19.181348 L30.1053954,15.0686912 L30.1053954,15.0686912 Z" id="icon_bow"></path>
        </g>
    </g>
</svg>