<?xml version="1.0" encoding="UTF-8"?>
<svg width="40px" height="40px" viewBox="0 0 40 40" version="1.1" xmlns="http://www.w3.org/2000/svg" xmlns:xlink="http://www.w3.org/1999/xlink">
    <!-- Generator: Sketch 46.1 (44463) - http://www.bohemiancoding.com/sketch -->
    <title>icon-monster</title>
    <desc>Created with Sketch.</desc>
    <defs></defs>
    <g id="Page-1" stroke="none" stroke-width="1" fill="none" fill-rule="evenodd">
        <g id="Artboard" transform="translate(-200.000000, -118.000000)" fill="#FFFFFF">
            <path d="M220.159449,154.170258 C218.945283,154.170258 218.436828,151.905131 217.436386,151.937409 C216.237335,151.976095 216.412184,154.519201 214.482646,153.791395 C212.908027,153.197462 212.923547,148.464235 211.332425,146.300004 C209.3243,143.568571 205.935418,140.308203 205.935418,136.614464 C205.935418,127.786519 213.063022,122.152008 221.043889,122.152008 C229.024755,122.152008 235.277961,127.39437 235.277961,136.221944 C235.277961,141.771869 231.607768,143.152033 229.527341,145.513011 C227.446914,147.87399 228.019805,154.170258 225.93775,154.170258 C223.946337,154.170258 224.53619,151.937409 223.193247,151.937409 C221.462091,151.937409 221.428439,154.170258 220.159449,154.170258 Z M220.373494,145.585694 C220.556795,145.598744 221.090702,146.07976 222.015578,145.585694 C222.940453,145.091629 221.291338,141.453576 220.364563,141.401218 C219.437788,141.34886 217.977525,144.267482 218.567241,145.33171 C219.156958,146.395939 220.190193,145.572645 220.373494,145.585694 Z M214.374364,139.233004 C216.216102,139.233004 218.235882,136.234781 218.235882,134.027795 C218.235882,131.820808 216.216102,131.286328 214.374364,131.286328 C212.532626,131.286328 211.562558,133.075444 211.562558,135.28243 C211.562558,137.489417 212.532626,139.233004 214.374364,139.233004 Z M226.601826,139.278533 C228.443564,139.278533 229.57999,137.660474 229.57999,135.453487 C229.57999,133.246501 228.443564,131.628442 226.601826,131.628442 C224.760087,131.628442 222.849675,132.231215 222.849675,134.438202 C222.849675,136.645188 224.760087,139.278533 226.601826,139.278533 Z" id="Combined-Shape"></path>
        </g>
    </g>
</svg>