<?xml version="1.0" encoding="UTF-8"?>
<svg width="40px" height="40px" viewBox="0 0 40 40" version="1.1" xmlns="http://www.w3.org/2000/svg" xmlns:xlink="http://www.w3.org/1999/xlink">
    <!-- Generator: Sketch 46.1 (44463) - http://www.bohemiancoding.com/sketch -->
    <title>icon-hp1</title>
    <desc>Created with Sketch.</desc>
    <defs></defs>
    <g id="Page-1" stroke="none" stroke-width="1" fill="none" fill-rule="evenodd">
        <g id="Artboard" transform="translate(-160.000000, -40.000000)">
            <g id="hp_1-4" transform="translate(164.599018, 44.500000)">
                <path d="M15.7848167,3.26271955 C14.5149785,1.71339679 12.3272701,2.27676642e-13 8.85964816,2.27676642e-13 C2.95713427,2.27373675e-13 -1.13387856e-13,5.55361599 -1.13724124e-13,10.7401974 C-1.13686838e-13,19.3140035 13.2720082,28.4100494 14.9001952,29.5387833 C15.1668579,29.7233239 15.4758373,29.8157648 15.7848167,29.8157648 C16.093796,29.8157648 16.4027754,29.7233239 16.6694381,29.5387833 C18.2976251,28.4100494 31.5696333,19.3140035 31.5696333,10.7401974 C31.5696333,5.55361599 28.6118273,2.27373675e-13 22.7089776,2.27373675e-13 C19.242699,2.27373675e-13 17.0546548,1.71339679 15.7848167,3.26271955 Z" id="Path" fill="#182359"></path>
                <path d="M-2.27373675e-13,10.7401974 C-2.27373675e-13,5.55361599 2.95713427,1.13686838e-13 8.85964816,1.13686838e-13 C12.3272701,1.13686838e-13 14.5101607,1.71339679 15.7799988,3.26271955 C15.8259972,3.20659711 15.8259972,6.45235726 15.7799988,13 L16,13 L0.288861783,13 C0.101872399,12.2465299 -2.27373675e-13,11.4913593 -2.27373675e-13,10.7401974 Z" id="Combined-Shape" fill="#B51949"></path>
            </g>
        </g>
    </g>
</svg>