<?xml version="1.0" encoding="UTF-8"?>
<svg width="40px" height="40px" viewBox="0 0 40 40" version="1.1" xmlns="http://www.w3.org/2000/svg" xmlns:xlink="http://www.w3.org/1999/xlink">
    <!-- Generator: Sketch 46.1 (44463) - http://www.bohemiancoding.com/sketch -->
    <title>icon-effect-mighty</title>
    <desc>Created with Sketch.</desc>
    <defs></defs>
    <g id="Page-1" stroke="none" stroke-width="1" fill="none" fill-rule="evenodd">
        <g id="Artboard" transform="translate(-160.000000, -79.000000)" fill="#FFFFFF">
            <g id="Group-2" transform="translate(165.000000, 85.000000)">
                <path d="M7.4093157,20.8269801 C7.33736349,20.9356601 7.25354454,21.0387919 7.15785887,21.1345455 L3.80503364,24.4897485 C3.03348604,25.2618433 1.78256022,25.2618433 1.01101262,24.4897485 L0.731610515,24.2101483 C-0.0399370859,23.4380535 -0.0399370859,22.1862405 0.731610515,21.4141457 L4.08443574,18.0589427 C4.18012142,17.9631891 4.28318013,17.8793107 4.39178312,17.8073075 L1.84921892,15.2629401 C1.23198084,14.6452643 1.23198084,13.6438139 1.84921892,13.0261381 C2.466457,12.4084622 3.46719766,12.4084622 4.08443574,13.0261381 L12.1870967,21.1345455 C12.8043348,21.7522213 12.8043348,22.7536717 12.1870967,23.3713475 C11.5698586,23.9890233 10.569118,23.9890233 9.95187989,23.3713475 L7.4093157,20.8269801 Z M9.36922792,16.6370767 C9.42836762,16.6088053 9.4837926,16.5701601 9.53277674,16.5211413 L15.679623,10.3699356 C15.9110873,10.1383072 15.9110873,9.76276329 15.679623,9.53113485 C15.4481587,9.29950642 15.072881,9.29950642 14.8414167,9.53113485 L8.69457043,15.6823405 C8.64558629,15.7313594 8.60696853,15.7868236 8.57871714,15.8460053 L6.04025046,13.3057383 L17.2051475,1.00906104 L24.7932066,0.428562852 L24.2131198,8.02200339 L11.9076946,19.1773437 L9.36922792,16.6370767 L9.36922792,16.6370767 Z" id="icon_weapon-copy"></path>
                <path d="M20.7984755,20.0333805 L17.5326501,20.0333805 C17.3717215,20.0333805 17.2162359,20.0916524 17.0949464,20.1974205 C16.8177341,20.4391576 16.7889759,20.8598492 17.030713,21.1370614 L22.6080338,27.532858 C22.627958,27.5557061 22.649419,27.5771671 22.6722671,27.5970913 C22.9494794,27.8388284 23.3701709,27.8100702 23.6119081,27.532858 L29.1892288,21.1370614 C29.2949969,21.0157718 29.3532688,20.8602863 29.3532688,20.6993576 C29.3532688,20.3315486 29.0551007,20.0333805 28.6872917,20.0333805 L25.4214664,20.0333805 L25.4214664,13.2896547 C25.4214664,12.9218457 25.1232983,12.6236776 24.7554893,12.6236776 L21.4644526,12.6236776 C21.0966436,12.6236776 20.7984755,12.9218457 20.7984755,13.2896547 L20.7984755,20.0333805 Z" id="Combined-Shape" transform="translate(23.109966, 20.192409) scale(1, -1) translate(-23.109966, -20.192409) "></path>
            </g>
        </g>
    </g>
</svg>