<?xml version="1.0" encoding="UTF-8"?>
<svg width="40px" height="40px" viewBox="0 0 40 40" version="1.1" xmlns="http://www.w3.org/2000/svg" xmlns:xlink="http://www.w3.org/1999/xlink">
    <!-- Generator: Sketch 46.1 (44463) - http://www.bohemiancoding.com/sketch -->
    <title>icon-shrine</title>
    <desc>Created with Sketch.</desc>
    <defs></defs>
    <g id="Page-1" stroke="none" stroke-width="1" fill="none" fill-rule="evenodd">
        <g id="Artboard" transform="translate(-320.000000, -118.000000)" fill-rule="nonzero" fill="#FFFFFF">
            <path d="M339.500573,150.93872 L337.035945,148.917065 C337.035945,148.917065 337.005539,146.898122 337.005539,144.99472 C337.005539,143.291997 339.930575,142.683881 339.930575,142.683881 C340.417067,142.775099 342.75223,143.291997 342.75223,144.99472 C342.746149,146.898122 342.715744,148.917065 342.715744,148.917065 L340.85687,150.85735 L340.85687,150.85735 C340.495441,151.234607 339.904514,151.27006 339.500573,150.93872 Z M348.760411,142.440635 C348.024592,141.346027 345.823214,138.232476 344.187383,137.770308 C344.187383,135.325684 344.290763,130.783061 340.933965,130.783061 L338.878535,130.783061 C335.521737,130.783061 335.625117,135.319603 335.625117,137.770308 C333.989286,138.226395 331.793989,141.339946 331.05817,142.440635 L327.824688,139.207154 L327.824688,139.207154 C327.434164,138.816629 327.434164,138.183464 327.824688,137.79294 L339.199143,126.418485 L339.199311,126.418653 C339.58977,126.028194 340.222805,126.028119 340.613357,126.418485 L351.993725,137.793108 L351.993893,137.79294 C352.38451,138.183372 352.384661,138.816537 351.994229,139.207154 C351.994173,139.20721 351.994117,139.207266 351.994061,139.207322 L348.760411,142.440635 Z M341.320464,154.70902 L356.115223,139.914261 L356.115223,139.914261 C356.896272,139.133212 356.896272,137.866882 356.115223,137.085833 L341.320464,122.291074 L341.320464,122.291074 C340.539415,121.510025 339.273085,121.510025 338.492036,122.291074 L323.697277,137.085833 L323.697277,137.085833 C322.916228,137.866882 322.916228,139.133212 323.697277,139.914261 L338.492036,154.70902 L338.492036,154.70902 C339.273085,155.490069 340.539415,155.490069 341.320464,154.70902 Z" id="Shape"></path>
        </g>
    </g>
</svg>