<?xml version="1.0" encoding="UTF-8"?>
<svg width="40px" height="40px" viewBox="0 0 40 40" version="1.1" xmlns="http://www.w3.org/2000/svg" xmlns:xlink="http://www.w3.org/1999/xlink">
    <!-- Generator: Sketch 46.1 (44463) - http://www.bohemiancoding.com/sketch -->
    <title>icon-hp20</title>
    <desc>Created with Sketch.</desc>
    <defs></defs>
    <g id="Page-1" stroke="none" stroke-width="1" fill="none" fill-rule="evenodd">
        <g id="Artboard" transform="translate(0.000000, -40.000000)">
            <g id="hp_5+" transform="translate(4.000000, 44.500000)">
                <path d="M29.8581425,16.5682076 C30.7801412,14.8485101 31.3541667,13.0748865 31.3541667,11.3236389 C31.3541667,6.27335197 28.4468914,0.865675403 22.6448849,0.865675403 C19.2378237,0.865675403 17.0871596,2.53404709 15.8390152,4.04265632 C14.5908707,2.53404709 12.4405368,0.865675403 9.03215506,0.865675403 C3.23047872,0.865675403 0.323863636,6.27335197 0.323863636,11.3236389 C0.323863636,19.6721403 13.3691351,28.5291579 14.9695064,29.6282305 C15.2316135,29.8079218 15.5353143,29.8979335 15.8390152,29.8979335 C16.142716,29.8979335 16.4464168,29.8079218 16.7085239,29.6282305 C16.8003859,29.5651433 16.9299567,29.476495 17.0926047,29.3638492 C15.787544,28.9141826 14.605258,28.3267988 13.5511732,27.5999903 L13.1608846,27.33088 C12.3374175,26.7630862 12.0600411,25.6742466 12.5114874,24.781675 L14.408307,21.0314013 C14.1193491,20.6779704 13.9418691,20.2296039 13.9418691,19.7365273 L13.9418691,8.70898438 C13.9418691,7.60441488 14.8372996,6.70898438 15.9418691,6.70898438 L28.7923776,6.70898438 C29.8969471,6.70898438 30.7923776,7.60441488 30.7923776,8.70898438 L30.7923776,12.847639 C30.7923776,13.9522085 29.8969471,14.847639 28.7923776,14.847639 L27.8484334,14.847639 C28.6255207,15.3196465 29.2988165,15.8942939 29.8581425,16.5682076 Z" id="Combined-Shape" fill="#B51949"></path>
                <path d="M22.1579777,15.3881514 C23.6082913,15.3881514 24.8950777,15.6375988 26.014351,16.1402563 C27.149955,16.6502478 28.0360028,17.3719963 28.6609613,18.3027465 C29.2882133,19.2369121 29.6028169,20.2947475 29.6028169,21.4623699 C29.6028169,22.7971583 29.2791062,23.9848717 28.6301837,25.0134355 C27.9815796,26.0414945 27.0658719,26.8363637 25.8940981,27.3927771 C24.7370958,27.9421764 23.4029436,28.2149413 21.8965457,28.2149413 C20.6891634,28.2149413 19.4363833,28.0103542 18.13915,27.6029569 C16.8426096,27.1957773 15.6911421,26.6461857 14.686484,25.9534578 L14.2961954,25.6843475 L16.1930149,21.9340737 L16.7133005,22.3379244 C17.4557135,22.9141926 18.2454255,23.3616148 19.0836735,23.6814752 C19.9117662,23.9974605 20.7351678,24.1545582 21.556684,24.1545582 C22.5928434,24.1545582 23.3853942,23.9237059 23.9518632,23.4758495 C24.4896642,23.0506583 24.752129,22.4825642 24.752129,21.7232748 C24.752129,21.0051984 24.4999178,20.4819218 23.9800151,20.0996079 C23.4245457,19.6911399 22.5489883,19.474625 21.3475384,19.474625 C20.7288577,19.474625 19.9081684,19.4961786 18.886877,19.5393664 C17.8670092,19.582494 17.0823487,19.6298229 16.5354882,19.6809877 L15.9418691,19.7365273 L15.9418691,8.70898438 L28.7923776,8.70898438 L28.7923776,12.847639 L20.269693,12.847639 L20.269693,15.3881514 L22.1579777,15.3881514 Z" id="5" fill="#FFFFFF" fill-rule="nonzero"></path>
            </g>
        </g>
    </g>
</svg>