<?xml version="1.0" encoding="UTF-8"?>
<svg width="40px" height="40px" viewBox="0 0 40 40" version="1.1" xmlns="http://www.w3.org/2000/svg" xmlns:xlink="http://www.w3.org/1999/xlink">
    <!-- Generator: Sketch 46.1 (44463) - http://www.bohemiancoding.com/sketch -->
    <title>icon-material</title>
    <desc>Created with Sketch.</desc>
    <defs></defs>
    <g id="Page-1" stroke="none" stroke-width="1" fill="none" fill-rule="evenodd">
        <g id="Artboard" transform="translate(-40.000000, 0.000000)" fill="#FFFFFF">
            <path d="M57.0265135,8.78642937 C57.4290714,11.0251776 57.4513312,12.2213373 57.0932928,12.3749085 C56.3348594,12.7002186 54.0327352,11.2647481 53.6461551,12.3749085 C53.259575,13.4850688 56.068198,14.5389053 60.0870535,14.6499739 C64.105909,14.7610426 68.6575614,13.5008606 68.0500783,12.3749085 C67.4425953,11.2489563 65.6059452,12.3749085 64.0401641,12.3749085 C63.3605886,12.3749085 63.2267944,11.2016107 63.6387815,8.85501524 C67.0487376,8.06641457 70.0797432,6.56965871 72.3684764,8.99658539 C75.0994938,11.8925013 76.7736404,15.79754 76.7736404,20.0939182 C76.7736404,25.8755844 73.8421554,31.8077822 69.2829271,34.6665495 C66.7995765,36.2236818 63.7627776,36.2646751 60.6161686,36.2646751 C57.8094141,36.2646751 55.1066458,35.9263928 52.806724,34.6665495 C47.7944957,31.9209682 44.4586969,26.2157183 44.4586969,20.0939182 C44.4586969,15.921385 45.316893,12.1179554 47.9095163,9.24951425 C50.1240078,6.79943258 53.4823768,8.01955719 57.0265135,8.78642937 L57.0265135,8.78642937 Z M58.5349474,3.1504181 L62.8204644,2.33398438 C62.4633467,4.15782409 62.1961594,5.9071996 62.0189023,7.58211088 C61.8416452,9.25702217 61.8416452,11.0063977 62.0189023,12.8302374 L59.2939068,12.8302374 C59.0058048,11.0651064 58.7528184,9.31573086 58.5349474,7.58211088 C58.3170765,5.84849091 58.3170765,4.37125998 58.5349474,3.1504181 Z" id="icon_material"></path>
        </g>
    </g>
</svg>