<?xml version="1.0" encoding="UTF-8"?>
<svg width="40px" height="40px" viewBox="0 0 40 40" version="1.1" xmlns="http://www.w3.org/2000/svg" xmlns:xlink="http://www.w3.org/1999/xlink">
    <!-- Generator: Sketch 46.1 (44463) - http://www.bohemiancoding.com/sketch -->
    <title>icon-hp2</title>
    <desc>Created with Sketch.</desc>
    <defs></defs>
    <g id="Page-1" stroke="none" stroke-width="1" fill="none" fill-rule="evenodd">
        <g id="Artboard" transform="translate(-120.000000, -40.000000)">
            <g id="hp_2-4" transform="translate(124.000000, 44.500000)">
                <path d="M15.7848167,3.26271955 C14.5149785,1.71339679 12.3272701,2.27676642e-13 8.85964816,2.27676642e-13 C2.95713427,2.27373675e-13 -3.40761532e-13,5.55361599 -3.410978e-13,10.7401974 C-3.41060513e-13,19.3140035 13.2720082,28.4100494 14.9001952,29.5387833 C15.1668579,29.7233239 15.4758373,29.8157648 15.7848167,29.8157648 C16.093796,29.8157648 16.4027754,29.7233239 16.6694381,29.5387833 C18.2976251,28.4100494 31.5696333,19.3140035 31.5696333,10.7401974 C31.5696333,5.55361599 28.6118273,2.27373675e-13 22.7089776,2.27373675e-13 C19.242699,2.27373675e-13 17.0546548,1.71339679 15.7848167,3.26271955 Z" id="Path" fill="#182359"></path>
                <path d="M15.7848167,29.8157648 C15.4758373,29.8157648 15.1668579,29.7233239 14.9001952,29.5387833 C13.2720082,28.4100494 -1.70530257e-13,19.3140035 -1.70530257e-13,10.7401974 C-1.70530257e-13,5.55361599 2.95713427,1.13686838e-13 8.85964816,1.13686838e-13 C12.3272701,1.13686838e-13 14.5149785,1.71339679 15.7848167,3.26271955 C15.8538143,3.17853589 15.8567222,29.8157648 15.7848167,29.8157648 Z" id="Combined-Shape" fill="#B51949"></path>
            </g>
        </g>
    </g>
</svg>