<?xml version="1.0" encoding="UTF-8"?>
<svg width="40px" height="40px" viewBox="0 0 40 40" version="1.1" xmlns="http://www.w3.org/2000/svg" xmlns:xlink="http://www.w3.org/1999/xlink">
    <!-- Generator: Sketch 46.1 (44463) - http://www.bohemiancoding.com/sketch -->
    <title>icon-extraHp1</title>
    <desc>Created with Sketch.</desc>
    <defs></defs>
    <g id="Page-1" stroke="none" stroke-width="1" fill="none" fill-rule="evenodd">
        <g id="Artboard" transform="translate(-240.000000, -79.000000)">
            <g id="hp_1-copy" transform="translate(244.000000, 84.000000)">
                <path d="M16.2151833,3.26271955 C14.9453452,1.71339679 12.7576368,2.27676642e-13 9.29001485,2.27676642e-13 C3.38750096,2.27373675e-13 0.43036669,5.55361599 0.43036669,10.7401974 C0.43036669,19.3140035 13.7023749,28.4100494 15.3305619,29.5387833 C15.5972246,29.7233239 15.906204,29.8157648 16.2151833,29.8157648 C16.5241627,29.8157648 16.8331421,29.7233239 17.0998048,29.5387833 C18.7279918,28.4100494 32,19.3140035 32,10.7401974 C32,5.55361599 29.042194,2.27373675e-13 23.1393443,2.27373675e-13 C19.6730657,2.27373675e-13 17.4850215,1.71339679 16.2151833,3.26271955 Z" id="Path" fill="#050F2C"></path>
                <path d="M16.2151833,3.26271955 C14.9453452,1.71339679 12.7576368,2.27676642e-13 9.29001485,2.27676642e-13 C3.38750096,2.27373675e-13 0.43036669,5.55361599 0.43036669,10.7401974 C0.43036669,19.3140035 13.7023749,28.4100494 15.3305619,29.5387833 C15.5972246,29.7233239 15.906204,29.8157648 16.2151833,29.8157648 C16.5241627,29.8157648 16.8331421,29.7233239 17.0998048,29.5387833 C18.7279918,28.4100494 32,19.3140035 32,10.7401974 C32,5.55361599 29.042194,2.27373675e-13 23.1393443,2.27373675e-13 C19.6730657,2.27373675e-13 17.4850215,1.71339679 16.2151833,3.26271955 Z" id="Path" fill="#FEF468"></path>
            </g>
        </g>
    </g>
</svg>