<?xml version="1.0" encoding="UTF-8"?>
<svg width="40px" height="40px" viewBox="0 0 40 40" version="1.1" xmlns="http://www.w3.org/2000/svg" xmlns:xlink="http://www.w3.org/1999/xlink">
    <!-- Generator: Sketch 46.1 (44463) - http://www.bohemiancoding.com/sketch -->
    <title>icon-effect-hearty</title>
    <desc>Created with Sketch.</desc>
    <defs></defs>
    <g id="Page-1" stroke="none" stroke-width="1" fill="none" fill-rule="evenodd">
        <g id="Artboard" transform="translate(-80.000000, -79.000000)">
            <g id="hp_1" transform="translate(84.000000, 84.000000)">
                <path d="M28.7319951,18.8631486 C30.6374741,16.2880525 32,13.4873179 32,10.7401974 C32,5.55361599 29.042194,2.27373675e-13 23.1393443,2.27373675e-13 C19.6730657,2.27373675e-13 17.4850215,1.71339679 16.2151833,3.26271955 C14.9453452,1.71339679 12.7576368,2.27676642e-13 9.29001485,2.27676642e-13 C3.38750096,2.27373675e-13 0.43036669,5.55361599 0.43036669,10.7401974 C0.43036669,19.3140035 13.7023749,28.4100494 15.3305619,29.5387833 C15.5972246,29.7233239 15.906204,29.8157648 16.2151833,29.8157648 C16.5241627,29.8157648 16.8331421,29.7233239 17.0998048,29.5387833 C17.4562662,29.2916679 18.3708277,28.6626712 19.5820323,27.7408793 L16.7630105,27.7408793 C15.1061563,27.7408793 13.7630105,26.3977335 13.7630105,24.7408793 L13.7630105,21.9329093 C13.7630105,20.276055 15.1061563,18.9329093 16.7630105,18.9329093 L19.9240251,18.9329093 L19.9240251,15.7718947 C19.9240251,14.1150404 21.2671708,12.7718947 22.9240251,12.7718947 L25.7319951,12.7718947 C27.3888494,12.7718947 28.7319951,14.1150404 28.7319951,15.7718947 L28.7319951,18.8631486 Z" id="Combined-Shape" fill="#FEF468"></path>
                <path d="M26.7319951,15.7718947 C26.7319951,15.2196099 26.2842799,14.7718947 25.7319951,14.7718947 L22.9240251,14.7718947 C22.3717403,14.7718947 21.9240251,15.2196099 21.9240251,15.7718947 L21.9240251,20.9329093 L16.7630105,20.9329093 C16.2107258,20.9329093 15.7630105,21.3806245 15.7630105,21.9329093 L15.7630105,24.7408793 C15.7630105,25.293164 16.2107258,25.7408793 16.7630105,25.7408793 L21.9240251,25.7408793 L21.9240251,30.9018939 C21.9240251,31.4541786 22.3717403,31.9018939 22.9240251,31.9018939 L25.7319951,31.9018939 C26.2842799,31.9018939 26.7319951,31.4541786 26.7319951,30.9018939 L26.7319951,25.7408793 L31.8930097,25.7408793 C32.4452944,25.7408793 32.8930097,25.293164 32.8930097,24.7408793 L32.8930097,21.9329093 C32.8930097,21.3806245 32.4452944,20.9329093 31.8930097,20.9329093 L27.7319951,20.9329093 L26.7319951,20.9329093 L26.7319951,15.7718947 Z" id="Combined-Shape" fill="#FFFFFF" fill-rule="nonzero"></path>
            </g>
        </g>
    </g>
</svg>